<?xml version="1.0" encoding="UTF-8"?>
<!-- Generator: visioncortex VTracer 0.6.12 -->
<svg version="1.1" xmlns="http://www.w3.org/2000/svg" width="1184" height="1730">
<path d="M0 0 C390.39 0 780.78 0 1183 0 C1183 101.97 1183 203.94 1183 309 C1168.22222222 323.77777778 1168.22222222 323.77777778 1163.1875 328.03125 C1160.00179249 330.89838676 1157.01415242 333.95431879 1154 337 C1149.85491669 341.18844192 1145.69083641 345.22670717 1141.1875 349.03125 C1138.00179249 351.89838676 1135.01415242 354.95431879 1132 358 C1127.85491669 362.18844192 1123.69083641 366.22670717 1119.1875 370.03125 C1116.00179249 372.89838676 1113.01415242 375.95431879 1110 379 C1105.85491669 383.18844192 1101.69083641 387.22670717 1097.1875 391.03125 C1094.00179232 393.89838692 1091.01415455 396.95432076 1088 400 C1080.71895711 407.35711491 1080.71895711 407.35711491 1077.0625 410.4375 C1072.97378849 413.89038596 1069.26265302 417.70077198 1065.5 421.5 C1061.17671345 425.8653112 1056.85323169 430.10613961 1052.15234375 434.06640625 C1048.32041767 437.50888068 1044.75498084 441.22666402 1041.13256836 444.88696289 C1037.60521622 448.43702635 1034.01118184 451.8008981 1030.1875 455.03125 C1027.00179249 457.89838676 1024.01415242 460.95431879 1021 464 C1016.85491669 468.18844192 1012.69083641 472.22670717 1008.1875 476.03125 C1005.00179249 478.89838676 1002.01415242 481.95431879 999 485 C994.85491669 489.18844192 990.69083641 493.22670717 986.1875 497.03125 C983.00179249 499.89838676 980.01415242 502.95431879 977 506 C972.85491669 510.18844192 968.69083641 514.22670717 964.1875 518.03125 C961.00179249 520.89838676 958.01415242 523.95431879 955 527 C950.85491669 531.18844192 946.69083641 535.22670717 942.1875 539.03125 C939.00179249 541.89838676 936.01415242 544.95431879 933 548 C928.85491669 552.18844192 924.69083641 556.22670717 920.1875 560.03125 C917.00179249 562.89838676 914.01415242 565.95431879 911 569 C906.85491669 573.18844192 902.69083641 577.22670717 898.1875 581.03125 C895.00179249 583.89838676 892.01415242 586.95431879 889 590 C884.85491669 594.18844192 880.69083641 598.22670717 876.1875 602.03125 C873.00179249 604.89838676 870.01415242 607.95431879 867 611 C862.85491669 615.18844192 858.69083641 619.22670717 854.1875 623.03125 C851.00179249 625.89838676 848.01415242 628.95431879 845 632 C840.85491669 636.18844192 836.69083641 640.22670717 832.1875 644.03125 C829.00179249 646.89838676 826.01415242 649.95431879 823 653 C818.85491669 657.18844192 814.69083641 661.22670717 810.1875 665.03125 C807.00179249 667.89838676 804.01415242 670.95431879 801 674 C796.85491669 678.18844192 792.69083641 682.22670717 788.1875 686.03125 C785.00179249 688.89838676 782.01415242 691.95431879 779 695 C774.85491669 699.18844192 770.69083641 703.22670717 766.1875 707.03125 C762.34703363 710.48766973 758.76845378 714.21302595 755.13500977 717.88452148 C751.58542182 721.45698233 747.96842121 724.84604401 744.12109375 728.09765625 C741.12860779 730.78152487 738.32566741 733.64234089 735.5 736.5 C732.10993619 739.92844551 728.74806043 743.32260699 725.0625 746.4375 C721.15730021 749.74572658 717.59719074 753.36513741 714 757 C709.8549191 761.18844516 705.69083638 765.2267072 701.1875 769.03125 C698.00179249 771.89838676 695.01415242 774.95431879 692 778 C687.85491669 782.18844192 683.69083641 786.22670717 679.1875 790.03125 C676.00179249 792.89838676 673.01415242 795.95431879 670 799 C665.85491669 803.18844192 661.69083641 807.22670717 657.1875 811.03125 C654.00179249 813.89838676 651.01415242 816.95431879 648 820 C643.85491669 824.18844192 639.69083641 828.22670717 635.1875 832.03125 C631.34703363 835.48766973 627.76845378 839.21302595 624.13500977 842.88452148 C620.58542182 846.45698233 616.96842121 849.84604401 613.12109375 853.09765625 C610.12860779 855.78152487 607.32566741 858.64234089 604.5 861.5 C601.10993619 864.92844551 597.74806043 868.32260699 594.0625 871.4375 C590.15730021 874.74572658 586.59719074 878.36513741 583 882 C578.8549191 886.18844516 574.69083638 890.2267072 570.1875 894.03125 C567.00179249 896.89838676 564.01415242 899.95431879 561 903 C556.85491669 907.18844192 552.69083641 911.22670717 548.1875 915.03125 C545.00179249 917.89838676 542.01415242 920.95431879 539 924 C534.85491669 928.18844192 530.69083641 932.22670717 526.1875 936.03125 C522.34703363 939.48766973 518.76845378 943.21302595 515.13500977 946.88452148 C511.58542182 950.45698233 507.96842121 953.84604401 504.12109375 957.09765625 C501.12860779 959.78152487 498.32566741 962.64234089 495.5 965.5 C491.54145349 969.50336447 487.54800425 973.33684802 483.24609375 976.97265625 C479.25182713 980.57791603 475.51282728 984.44988231 471.74633789 988.29077148 C471.16231201 988.88317627 470.57828613 989.47558105 469.9765625 990.0859375 C469.45143066 990.6226709 468.92629883 991.1594043 468.38525391 991.71240234 C465.38891148 994.4975116 462.39150653 994.13802802 458.53341675 994.12025452 C457.86200531 994.12110894 457.19059387 994.12196337 456.49883664 994.12284368 C454.23861825 994.12449688 451.97847332 994.11897972 449.71826172 994.11352539 C448.10222373 994.11324346 446.48618562 994.11340137 444.87014771 994.1139679 C440.47370099 994.11425564 436.07728137 994.10836269 431.68084097 994.10139394 C427.0897291 994.0951565 422.49861667 994.09455629 417.90750122 994.09336853 C409.20940024 994.09025637 400.51131179 994.08204452 391.81321633 994.07201904 C381.9125136 994.06085434 372.01181028 994.05534655 362.11110282 994.05032361 C341.74072826 994.03986182 321.37036483 994.0222646 301 994 C297.84667588 982.86295973 294.86800133 971.70544564 292.15625 960.453125 C291.79465027 958.96324041 291.43274069 957.473431 291.07055664 955.98368835 C290.28889703 952.76658837 289.50889203 949.54909383 288.73022461 946.33126831 C286.79088731 938.3181292 284.84216008 930.3072714 282.89341736 922.29641533 C282.41949667 920.34822285 281.9456719 918.40000704 281.47193909 916.45176888 C277.13317157 898.61095773 272.75949961 880.77883366 268.375 862.94921875 C268.29359048 862.61814393 268.29359048 862.61814393 267.88160896 860.94270468 C264.61474404 847.65720778 261.34573088 834.37223983 258.0751543 821.0876562 C256.83334474 816.04344685 255.59211662 810.9990946 254.35126019 805.9546507 C253.6295557 803.02088339 252.90752464 800.08719739 252.18463135 797.15372276 C250.66267679 790.9767483 249.14911571 784.7978339 247.64372063 778.61680412 C247.06766609 776.27507103 246.47570527 773.93822707 245.87660217 771.60231018 C245.01389312 768.19839763 244.22772829 764.78461333 243.49939346 761.34945488 C243.14039777 759.6605177 242.76787891 757.97443406 242.38671494 756.2903614 C238.38837754 738.10786279 235.14701488 714.94666497 245.19846344 698.05794525 C258.36221277 677.86099359 277.901453 661.43234808 295.60467565 645.34632933 C302.84453717 638.75737438 309.92011551 632.00203131 316.98757374 625.22920692 C325.62365113 616.95525813 334.27988453 608.70521559 343.06349182 600.5877533 C343.68024713 600.01753987 344.29700245 599.44732645 344.93244731 598.85983384 C347.80767528 596.20423943 350.68822503 593.5547486 353.5771637 590.91407776 C354.59833364 589.97483352 355.61945465 589.03553607 356.64051819 588.09617615 C357.08315115 587.69533686 357.5257841 587.29449757 357.98183018 586.88151163 C361.31188648 583.80918516 364.24216102 580.46410298 367.20227808 577.0372358 C369.99050974 573.87752278 372.95715564 570.91157095 375.94482422 567.94165039 C376.60740171 567.27892404 377.26997921 566.61619768 377.95263481 565.93338871 C380.15095181 563.73576056 382.35281112 561.54171766 384.5546875 559.34765625 C386.14062416 557.76364076 387.72633182 556.17939596 389.31182861 554.59494019 C392.71575128 551.19416924 396.12116177 547.79489932 399.52789307 544.39694214 C404.46145782 539.47598951 409.39173054 534.55174886 414.32113719 529.62663138 C422.33147282 521.62334855 430.34367447 513.62193684 438.35742188 505.62207031 C438.59676433 505.38314176 438.59676433 505.38314176 439.80798221 504.1740185 C443.69135506 500.29738946 447.57481878 496.42085146 451.45828629 492.54431725 C454.85309273 489.15556396 458.24786286 485.76677431 461.64257812 482.37792969 C462.12067452 481.90066142 462.59877092 481.42339315 463.09135509 480.9316622 C471.07693512 472.9597913 479.06053378 464.98593893 487.04273415 457.01068401 C491.95704268 452.10084243 496.87311534 447.19278017 501.7915206 442.28704238 C505.5627905 438.52523238 509.3314862 434.76085421 513.09926605 430.99554825 C514.64027361 429.45640743 516.18214276 427.91812867 517.7249527 426.38079453 C519.83736653 424.27564034 521.94662602 422.16737309 524.05517578 420.05834961 C524.66034468 419.45677567 525.26551357 418.85520174 525.88902092 418.23539829 C530.14895908 413.96525917 534.00560833 409.56501905 538 405 C556.48 386.52 574.96 368.04 594 349 C397.98 348.67 201.96 348.34 0 348 C0 233.16 0 118.32 0 0 Z " fill="#B72420" transform="translate(0,0)"/>
<path d="M0 0 C0.50578331 -0.02061745 0.50578331 -0.02061745 3.06535339 -0.12495422 C4.16929947 -0.1559874 5.27324554 -0.18702057 6.41064453 -0.21899414 C7.55362503 -0.25216232 8.69660553 -0.28533051 9.8742218 -0.31950378 C13.59701368 -0.41418414 17.31969208 -0.46642486 21.04345703 -0.50415039 C21.35818026 -0.50758831 21.35818026 -0.50758831 22.95087051 -0.52498627 C42.65553207 -0.7051247 58.56986466 0.9103161 75.46484375 11.74536133 C78.8441922 13.85524169 82.34634917 15.52821495 85.95117188 17.21264648 C122.72167503 34.473607 156.76167686 58.682329 187.16845703 85.43334961 C187.4062085 85.64145264 187.4062085 85.64145264 188.609375 86.69458008 C195.46562746 92.72837598 201.97876514 99.1220691 208.46188354 105.55154419 C209.37337301 106.4550124 210.28633923 107.35699381 211.20095825 108.2572937 C216.913925 113.89017768 222.192808 119.70904966 227.20092773 125.9777832 C228.76439623 127.92906327 230.35030129 129.83765862 231.99658203 131.71850586 C249.10938344 151.29469623 263.05490533 173.48135691 275.16845703 196.43334961 C275.40298584 196.87710938 275.40298584 196.87710938 276.58984375 199.12280273 C282.71980267 210.82085819 288.26892681 222.63840218 293.23095703 234.87084961 C293.46088348 235.43730194 293.69080994 236.00375427 293.92770386 236.58737183 C295.38199964 240.18808817 296.8150168 243.79350414 298.16845703 247.43334961 C298.29290618 247.71423871 298.29290618 247.71423871 298.92269433 249.1357078 C301.97690541 256.77027039 301.61122816 264.59876163 301.60324097 272.67567444 C301.61243479 274.33118724 301.622902 275.98669337 301.63452733 277.64219087 C301.66251323 282.17773166 301.67184376 286.7131455 301.67790341 291.24876153 C301.68759418 296.14705849 301.7143003 301.04526905 301.73846436 305.94351196 C301.79290768 317.77091888 301.81863257 329.59832341 301.84131545 341.42582694 C301.85267908 347.00886458 301.86719897 352.59189387 301.88141251 358.17492485 C301.92763502 376.7602277 301.96699343 395.34551939 301.98478508 413.93087101 C301.98595619 415.13189776 301.98712975 416.3329245 301.98830575 417.53395125 C301.98888766 418.12949825 301.98946957 418.72504525 301.99006911 419.33863913 C301.99302344 422.3554795 301.99601032 425.37231984 301.99902344 428.38916016 C301.99961313 428.98784118 302.00020282 429.5865222 302.00081038 430.20334508 C302.02017599 449.56298352 302.08283192 468.92214478 302.17132569 488.28158234 C302.26493394 508.79783324 302.31768522 529.31370606 302.32544148 549.83020395 C302.33066163 560.99400406 302.35345829 572.15712581 302.42318344 583.32072639 C302.48248017 592.83927899 302.50297606 602.35697676 302.47551177 611.87568975 C302.46265695 616.71874085 302.46642462 621.56004718 302.52009201 626.40285683 C302.76833973 650.14189453 300.1871956 669.78392817 290.88787523 691.72020905 C289.66178174 694.63988844 288.49726001 697.58419588 287.32415581 700.52546787 C274.90758447 731.52142726 259.41819816 761.49589543 241.16845703 789.43334961 C240.47690425 790.50486964 239.7854819 791.57647387 239.09423828 792.64819336 C229.74002446 806.94425599 219.50823997 820.55813478 208.59960938 833.69799805 C207.33145643 835.2357038 206.08245698 836.78558667 204.84423828 838.34741211 C198.92911365 845.76045185 192.49024245 852.61892155 185.97802734 859.50610352 C184.19046227 861.40991338 182.42243172 863.32990182 180.66064453 865.25756836 C175.64357025 870.74114632 170.70174792 876.10352386 164.98095703 880.87084961 C162.99017109 882.58704438 161.18456404 884.42075528 159.35595703 886.30834961 C155.97382624 889.73645111 152.39779134 892.79832599 148.63989258 895.80712891 C146.05299672 897.88196681 143.51017214 899.98893251 141.02001953 902.17944336 C132.23051881 909.90847878 123.02164461 916.90971252 113.52050781 923.74145508 C111.31243822 925.32978 109.11311693 926.92956842 106.91455078 928.53100586 C52.6519384 967.75668142 -9.79191649 994.80083369 -73.83154297 1013.43334961 C-74.38183995 1013.61219767 -74.93213692 1013.79104573 -75.49910957 1013.97531343 C-78.99006549 1014.66085674 -82.43702549 1014.5847598 -85.98665905 1014.58712387 C-86.81980107 1014.59157328 -87.65294308 1014.59602268 -88.51133183 1014.60060692 C-91.32177985 1014.614354 -94.13219956 1014.62098398 -96.94267273 1014.62762451 C-98.97105678 1014.63593302 -100.99943921 1014.64464684 -103.02781993 1014.65373254 C-108.03073273 1014.6749075 -113.03364541 1014.69130554 -118.03658231 1014.70558088 C-122.19835142 1014.71759824 -126.36010742 1014.73191541 -130.52186394 1014.74768448 C-130.82210859 1014.74882013 -130.82210859 1014.74882013 -132.34152852 1014.75456723 C-132.94589806 1014.75685377 -133.5502676 1014.75914032 -134.17295136 1014.76149616 C-178.98600585 1014.93101142 -223.79946677 1015.01512407 -268.61277811 1015.08209316 C-275.29173861 1015.09210292 -281.97069851 1015.10249838 -288.6496582 1015.11303711 C-289.0186277 1015.11361484 -289.0186277 1015.11361484 -290.88583697 1015.11653851 C-314.72659 1015.15413666 -338.56702169 1015.23001333 -362.40760073 1015.32715211 C-386.95838197 1015.42700033 -411.50898945 1015.49018224 -436.05997441 1015.50750651 C-439.54354681 1015.50997511 -443.02711879 1015.51283956 -446.51069069 1015.51593781 C-447.19614928 1015.51653296 -447.88160788 1015.51712811 -448.58783795 1015.5177413 C-459.52945834 1015.52826027 -470.4705974 1015.57609953 -481.41203156 1015.63846319 C-492.46433257 1015.70059383 -503.51613313 1015.72094215 -514.56859531 1015.70137796 C-520.53464414 1015.69189619 -526.49917537 1015.70018364 -532.46499634 1015.75806808 C-561.59732101 1016.02625113 -587.15303771 1013.13577135 -614.89909758 1004.0576809 C-618.59727453 1002.86287995 -622.32713821 1001.77622743 -626.05394381 1000.67454886 C-629.81718081 999.54351769 -633.54260492 998.30426169 -637.26904297 997.05834961 C-638.06888611 996.79465576 -638.86872925 996.53096191 -639.69281006 996.25927734 C-709.99972061 973.06362306 -778.35584678 940.28830969 -838.83154297 897.43334961 C-840.00599778 896.60779413 -841.18047676 895.78227302 -842.35498047 894.95678711 C-848.58151152 890.56107588 -854.72673312 886.05889862 -860.83154297 881.49584961 C-861.42322266 881.05442627 -862.01490234 880.61300293 -862.62451172 880.15820312 C-863.87199531 879.22042928 -865.10063148 878.25717085 -866.31140327 877.27245426 C-868.3058691 875.81696694 -870.08208779 874.76389364 -872.25425529 873.64945889 C-877.36509993 870.75919734 -881.8044243 867.63788588 -883.65990305 861.84892583 C-884.94549979 854.44454925 -884.82519859 846.93015657 -884.74964261 839.43959963 C-884.73019522 836.00255008 -884.79150619 832.5667482 -884.84182739 829.13014221 C-884.92696955 822.40736783 -884.93608261 815.68658711 -884.91620053 808.96338213 C-884.90094002 803.49163232 -884.91094089 798.02047743 -884.93859482 792.54878044 C-884.94247242 791.7678427 -884.94635002 790.98690495 -884.95034512 790.18230243 C-884.95825582 788.59536581 -884.96618905 787.00842931 -884.97414456 785.42149293 C-885.04502103 770.55571541 -885.02562143 755.69106579 -884.97823475 740.82526427 C-884.93775553 727.2649428 -885.00845961 713.70790825 -885.13249601 700.14817906 C-885.25919744 686.18949869 -885.31094813 672.23235834 -885.28269756 658.27310508 C-885.26812739 650.45014857 -885.28193496 642.62987139 -885.37405777 634.80737495 C-885.45169255 628.14228519 -885.45745791 621.48161134 -885.37475528 614.81651128 C-885.33451427 611.42286172 -885.32444073 608.03717044 -885.40406799 604.64403534 C-885.66214258 592.83174726 -885.52229057 582.22066936 -877.21448996 573.08820454 C-872.75733859 568.46995049 -867.83842272 564.43971045 -862.83154297 560.43334961 C-861.34450628 559.16341624 -859.86466494 557.88498227 -858.39401436 556.59610844 C-857.7836474 556.06278591 -857.17328043 555.52946339 -856.5444175 554.97997957 C-853.69531895 552.40740282 -851.01336992 549.67808361 -848.33154297 546.93334961 C-844.34633277 542.89798231 -840.31635148 539.03911953 -835.98779297 535.37084961 C-832.38068942 532.12968411 -829.01975402 528.64072582 -825.61108398 525.19335938 C-822.17117776 521.72948515 -818.64600447 518.46210027 -814.92138672 515.30444336 C-812.11243763 512.78951511 -809.4804568 510.11499638 -806.83154297 507.43334961 C-803.60755915 504.16952664 -800.39636476 500.96504842 -796.89404297 497.99584961 C-793.17196604 494.83324979 -789.76288225 491.40364265 -786.33154297 487.93334961 C-782.3437774 483.90036487 -778.31659389 480.03932496 -773.98779297 476.37084961 C-770.38530086 473.13382772 -767.02843189 469.64965096 -763.62426758 466.20654297 C-760.1140401 462.6717075 -756.5410717 459.28420996 -752.71044922 456.09350586 C-750.83154297 454.43334961 -750.83154297 454.43334961 -749.76800537 452.99168396 C-747.52384953 450.19149867 -745.78123621 448.65177621 -742.22935486 447.83485413 C-738.98412447 447.57246264 -735.78671277 447.49699626 -732.53076172 447.49584961 C-731.32777004 447.48162084 -730.12479173 447.46621916 -728.92182922 447.44970703 C-726.40575429 447.42289432 -723.89093313 447.41963988 -721.37475586 447.43139648 C-718.17180909 447.44316755 -714.974951 447.38212396 -711.77318096 447.30116272 C-709.28907226 447.24907636 -706.80639673 447.24368158 -704.3218174 447.25094604 C-702.57518206 447.24597601 -700.82884903 447.19680109 -699.08293152 447.14648438 C-694.16889068 447.2310786 -691.05187088 447.44140027 -687.15933228 450.60546875 C-684.82556905 453.04658517 -682.82732283 455.71064821 -680.83154297 458.43334961 C-679.73999718 459.71503958 -678.63838486 460.98836199 -677.51904297 462.24584961 C-676.96345703 462.88264648 -676.40787109 463.51944336 -675.83544922 464.17553711 C-669.05717796 471.81265365 -662.09804222 479.24804218 -654.81982422 486.40991211 C-653.01171703 488.24998976 -651.35701317 490.14028536 -649.70654297 492.12084961 C-645.64333781 496.87079366 -641.02239099 501.02516189 -636.42480469 505.24658203 C-632.67180831 508.69407923 -629.01345416 512.20608372 -625.44091797 515.84082031 C-622.38217113 518.86755053 -619.09139678 521.62739949 -615.83154297 524.43334961 C-614.73714744 525.3909457 -613.64345635 526.34934718 -612.55029297 527.30834961 C-553.41025573 579.0836885 -484.84290345 618.54784991 -300.83154297 650.43334961 C-276.87840712 648.75739926 -252.41350238 643.55790603 -229.83154297 635.43334961 C-228.94724609 635.12059082 -228.06294922 634.80783203 -227.15185547 634.4855957 C-201.22227807 625.20643426 -177.84536001 611.85822275 -157.19775391 593.63208008 C-155.97760295 592.56150445 -154.73783049 591.51338744 -153.49560547 590.46850586 C-148.7802765 586.48486587 -144.7943285 582.15600948 -140.83154297 577.43334961 C-140.09291016 576.60577148 -139.35427734 575.77819336 -138.59326172 574.92553711 C-115.42842256 548.66892023 -102.86540286 515.47963921 -96.83154297 481.43334961 C-96.71520508 480.78317871 -96.59886719 480.13300781 -96.47900391 479.46313477 C-91.53964369 448.99227325 -108.7585503 410.80465084 -126.01904297 386.68334961 C-127.59030363 384.57316007 -129.20485266 382.50090562 -130.83154297 380.43334961 C-131.51087891 379.53358398 -132.19021484 378.63381836 -132.89013672 377.70678711 C-157.29648331 346.42606312 -192.56060454 324.93009964 -229.08154297 310.55834961 C-229.35630966 310.44970078 -229.35630966 310.44970078 -230.74679565 309.89987183 C-240.94124842 305.89943467 -251.36863266 302.65223984 -261.83154297 299.43334961 C-262.22980891 292.67095644 -262.52955293 285.91141766 -262.71234989 279.14016724 C-262.80022599 275.9930564 -262.91866082 272.85408668 -263.11401367 269.71166992 C-264.43907935 247.82348881 -264.43907935 247.82348881 -258.18481445 240.32617188 C-254.70043201 236.81588529 -250.9242127 233.83440395 -246.89825439 230.97213745 C-243.87934801 228.72438463 -241.34143302 226.10476283 -238.76904297 223.37084961 C-235.95102202 220.49701758 -233.08929443 217.72669329 -230.01904297 215.12084961 C-226.07752772 211.76446652 -222.47016535 208.11016774 -218.83154297 204.43334961 C-214.68646688 200.24489797 -210.52237928 196.20664236 -206.01904297 192.40209961 C-202.83333546 189.53496285 -199.84569539 186.47903082 -196.83154297 183.43334961 C-192.68645966 179.24490769 -188.52237938 175.20664244 -184.01904297 171.40209961 C-180.83333546 168.53496285 -177.84569539 165.47903082 -174.83154297 162.43334961 C-170.68645966 158.24490769 -166.52237938 154.20664244 -162.01904297 150.40209961 C-158.1785766 146.94567988 -154.59999675 143.22032366 -150.96655273 139.54882812 C-147.41696479 135.97636728 -143.79996418 132.5873056 -139.95263672 129.33569336 C-136.96015076 126.65182474 -134.15721038 123.79100872 -131.33154297 120.93334961 C-127.94147916 117.5049041 -124.5796034 114.11074262 -120.89404297 110.99584961 C-116.98884318 107.68762303 -113.42873371 104.0682122 -109.83154297 100.43334961 C-105.68646206 96.24490445 -101.52237935 92.20664241 -97.01904297 88.40209961 C-93.83333546 85.53496285 -90.84569539 82.47903082 -87.83154297 79.43334961 C-83.68645966 75.24490769 -79.52237938 71.20664244 -75.01904297 67.40209961 C-71.83333546 64.53496285 -68.84569539 61.47903082 -65.83154297 58.43334961 C-61.68645966 54.24490769 -57.52237938 50.20664244 -53.01904297 46.40209961 C-49.83333546 43.53496285 -46.84569539 40.47903082 -43.83154297 37.43334961 C-39.68645966 33.24490769 -35.52237938 29.20664244 -31.01904297 25.40209961 C-27.18702272 21.95328139 -23.61592884 18.23666796 -19.99072266 14.57299805 C-16.21191858 10.76958971 -12.38428761 7.12566465 -8.28466797 3.66772461 C-4.15861477 0.1627977 -4.15861477 0.1627977 0 0 Z " fill="#B72420" transform="translate(882.83154296875,715.566650390625)"/>
<path d="M0 0 C0.50578331 -0.02061745 0.50578331 -0.02061745 3.06535339 -0.12495422 C4.16929947 -0.1559874 5.27324554 -0.18702057 6.41064453 -0.21899414 C7.55362503 -0.25216232 8.69660553 -0.28533051 9.8742218 -0.31950378 C13.59701368 -0.41418414 17.31969208 -0.46642486 21.04345703 -0.50415039 C21.35818026 -0.50758831 21.35818026 -0.50758831 22.95087051 -0.52498627 C42.65553207 -0.7051247 58.56986466 0.9103161 75.46484375 11.74536133 C78.8441922 13.85524169 82.34634917 15.52821495 85.95117188 17.21264648 C122.72167503 34.473607 156.76167686 58.682329 187.16845703 85.43334961 C187.4062085 85.64145264 187.4062085 85.64145264 188.609375 86.69458008 C195.46562746 92.72837598 201.97876514 99.1220691 208.46188354 105.55154419 C209.37337301 106.4550124 210.28633923 107.35699381 211.20095825 108.2572937 C216.913925 113.89017768 222.192808 119.70904966 227.20092773 125.9777832 C228.76439623 127.92906327 230.35030129 129.83765862 231.99658203 131.71850586 C249.10938344 151.29469623 263.05490533 173.48135691 275.16845703 196.43334961 C275.40298584 196.87710938 275.40298584 196.87710938 276.58984375 199.12280273 C282.71980267 210.82085819 288.26892681 222.63840218 293.23095703 234.87084961 C293.46088348 235.43730194 293.69080994 236.00375427 293.92770386 236.58737183 C295.38199964 240.18808817 296.8150168 243.79350414 298.16845703 247.43334961 C298.29290618 247.71423871 298.29290618 247.71423871 298.92269433 249.1357078 C301.97690541 256.77027039 301.61122816 264.59876163 301.60324097 272.67567444 C301.61243479 274.33118724 301.622902 275.98669337 301.63452733 277.64219087 C301.66251323 282.17773166 301.67184376 286.7131455 301.67790341 291.24876153 C301.68759418 296.14705849 301.7143003 301.04526905 301.73846436 305.94351196 C301.79290768 317.77091888 301.81863257 329.59832341 301.84131545 341.42582694 C301.85267908 347.00886458 301.86719897 352.59189387 301.88141251 358.17492485 C301.92763502 376.7602277 301.96699343 395.34551939 301.98478508 413.93087101 C301.98595619 415.13189776 301.98712975 416.3329245 301.98830575 417.53395125 C301.98888766 418.12949825 301.98946957 418.72504525 301.99006911 419.33863913 C301.99302344 422.3554795 301.99601032 425.37231984 301.99902344 428.38916016 C301.99961313 428.98784118 302.00020282 429.5865222 302.00081038 430.20334508 C302.02017599 449.56298352 302.08283192 468.92214478 302.17132569 488.28158234 C302.26493394 508.79783324 302.31768522 529.31370606 302.32544148 549.83020395 C302.33066163 560.99400406 302.35345829 572.15712581 302.42318344 583.32072639 C302.48248017 592.83927899 302.50297606 602.35697676 302.47551177 611.87568975 C302.46265695 616.71874085 302.46642462 621.56004718 302.52009201 626.40285683 C302.76833973 650.14189453 300.1871956 669.78392817 290.88787523 691.72020905 C289.66178174 694.63988844 288.49726001 697.58419588 287.32415581 700.52546787 C274.90758447 731.52142726 259.41819816 761.49589543 241.16845703 789.43334961 C240.47690425 790.50486964 239.7854819 791.57647387 239.09423828 792.64819336 C229.74002446 806.94425599 219.50823997 820.55813478 208.59960938 833.69799805 C207.33145643 835.2357038 206.08245698 836.78558667 204.84423828 838.34741211 C198.92911365 845.76045185 192.49024245 852.61892155 185.97802734 859.50610352 C184.19046227 861.40991338 182.42243172 863.32990182 180.66064453 865.25756836 C175.64357025 870.74114632 170.70174792 876.10352386 164.98095703 880.87084961 C162.99017109 882.58704438 161.18456404 884.42075528 159.35595703 886.30834961 C155.97382624 889.73645111 152.39779134 892.79832599 148.63989258 895.80712891 C146.05299672 897.88196681 143.51017214 899.98893251 141.02001953 902.17944336 C132.23051881 909.90847878 123.02164461 916.90971252 113.52050781 923.74145508 C111.31243822 925.32978 109.11311693 926.92956842 106.91455078 928.53100586 C61.0552304 961.68206041 -22.5113779 1014.591185 -81.65023422 1014.55639744 C-82.02519795 1014.55739296 -82.02519795 1014.55739296 -83.92274165 1014.56243092 C-84.73986227 1014.55951808 -85.55698289 1014.55660524 -86.39886475 1014.55360413 C-87.2720791 1014.55445855 -88.14529345 1014.55531298 -89.04496884 1014.55619329 C-91.97612628 1014.55784273 -94.90722672 1014.55233545 -97.83837891 1014.546875 C-99.93746438 1014.54659299 -102.03654996 1014.54675114 -104.13563538 1014.5473175 C-108.65749413 1014.54754535 -113.17933995 1014.54470565 -117.70119476 1014.53907967 C-124.23902774 1014.53095074 -130.77685374 1014.52834802 -137.31469122 1014.52709167 C-147.92203768 1014.52490335 -158.52937646 1014.51824919 -169.13671875 1014.50878906 C-179.4404293 1014.49960928 -189.74413775 1014.49253121 -200.04785156 1014.48828125 C-200.68303073 1014.48801853 -201.31820989 1014.4877558 -201.97263691 1014.48748512 C-205.15916153 1014.48618008 -208.34568618 1014.48491637 -211.53221083 1014.48367321 C-237.96532705 1014.47330743 -264.39843394 1014.45562069 -290.83154297 1014.43334961 C-290.83154297 1014.10334961 -290.83154297 1013.77334961 -290.83154297 1013.43334961 C-290.26668686 1013.40464783 -289.70183075 1013.37594604 -289.11985779 1013.34637451 C-233.21454703 1010.48711792 -178.10031549 1005.47148764 -123.60998535 991.87615967 C-121.8096163 991.42789014 -120.00773726 990.98613043 -118.20556641 990.54516602 C-74.51927586 979.79803725 -31.05313322 964.36287394 8.90478516 943.60424805 C11.59491402 942.21276207 14.29598633 940.84347047 16.99658203 939.47241211 C50.63174593 922.33122673 82.19085008 901.65138653 111.16845703 877.43334961 C111.76029785 876.94060547 112.35213867 876.44786133 112.96191406 875.94018555 C119.6620412 870.35392872 126.28323118 864.68613752 132.70458984 858.77954102 C133.77216979 857.79778054 134.84216419 856.81864367 135.91357422 855.84106445 C145.57748922 847.00768089 154.7440629 837.83907167 163.57617188 828.17407227 C164.9490724 826.67318592 166.33130201 825.18202238 167.71923828 823.69506836 C172.89382258 818.07931169 177.60948429 812.16472996 182.28173828 806.13256836 C184.20696215 803.65071652 186.16181584 801.19795565 188.14892578 798.76538086 C195.32820158 789.96809264 201.8964211 780.89697851 208.16845703 771.43334961 C208.61012207 770.77141602 209.05178711 770.10948242 209.50683594 769.42749023 C250.54600524 707.75636178 276.6829463 639.22621743 298.16845703 501.43334961 C298.22360474 500.76665253 298.27875244 500.09995544 298.33557129 499.41305542 C299.48713799 484.88694876 299.4124997 470.30810324 299.41845703 455.74584961 C299.41904617 455.08495079 299.41963531 454.42405197 299.42024231 453.74312592 C299.43397035 431.8679841 298.83964592 410.19431649 296.39306641 388.43518066 C296.17118606 386.45767204 295.9581767 384.47936508 295.74658203 382.50073242 C288.17272843 312.77928804 265.37315009 243.2325717 225.16845703 185.43334961 C224.98726318 185.16989746 224.98726318 185.16989746 224.0703125 183.83666992 C217.26490035 173.96350332 209.87757207 164.61428198 202.16845703 155.43334961 C201.75761871 154.93993073 201.3467804 154.44651184 200.92349243 153.93814087 C193.75978588 145.35107742 186.26807663 137.21369815 178.33178711 129.3359375 C176.59590972 127.61086484 174.87110613 125.8752297 173.14697266 124.13842773 C166.4608124 117.44436752 159.57869527 111.31308716 152.16845703 105.43334961 C151.0664665 104.4987615 149.97014492 103.5573842 148.88330078 102.60522461 C140.09057313 94.9212528 130.73826093 88.11423782 121.16845703 81.43334961 C120.55309082 81.00199707 119.93772461 80.57064453 119.30371094 80.1262207 C92.34927752 61.35262795 63.17987396 45.91175616 33.37548828 32.23413086 C32.82131226 31.97953094 32.26713623 31.72493103 31.69616699 31.46261597 C28.55268904 30.0298443 25.38623358 28.69018315 22.16845703 27.43334961 C14.26875397 34.77272662 6.39498549 42.11631928 -1.17529297 49.79663086 C-3.58227531 52.22542875 -6.0370161 54.53399313 -8.64404297 56.74584961 C-12.58555822 60.1022327 -16.19292059 63.75653148 -19.83154297 67.43334961 C-23.97661906 71.62180125 -28.14070665 75.66005686 -32.64404297 79.46459961 C-35.82975048 82.33173637 -38.81739054 85.38766839 -41.83154297 88.43334961 C-45.97662628 92.62179153 -50.14070656 96.66005678 -54.64404297 100.46459961 C-57.82975048 103.33173637 -60.81739054 106.38766839 -63.83154297 109.43334961 C-67.97662628 113.62179153 -72.14070656 117.66005678 -76.64404297 121.46459961 C-79.82975048 124.33173637 -82.81739054 127.38766839 -85.83154297 130.43334961 C-89.97662628 134.62179153 -94.14070656 138.66005678 -98.64404297 142.46459961 C-102.48450933 145.92101934 -106.06308919 149.64637556 -109.6965332 153.31787109 C-113.24612115 156.89033194 -116.86312176 160.27939362 -120.71044922 163.53100586 C-123.70293517 166.21487448 -126.50587556 169.0756905 -129.33154297 171.93334961 C-132.72160678 175.36179512 -136.08348254 178.7559566 -139.76904297 181.87084961 C-143.67424276 185.17907619 -147.23435223 188.79848702 -150.83154297 192.43334961 C-154.97662387 196.62179477 -159.14070659 200.66005681 -163.64404297 204.46459961 C-166.82975048 207.33173637 -169.81739054 210.38766839 -172.83154297 213.43334961 C-176.97662628 217.62179153 -181.14070656 221.66005678 -185.64404297 225.46459961 C-188.82975048 228.33173637 -191.81739054 231.38766839 -194.83154297 234.43334961 C-198.97662628 238.62179153 -203.14070656 242.66005678 -207.64404297 246.46459961 C-211.47639325 249.91371486 -215.04899691 253.62976289 -218.67236328 257.29589844 C-222.43815343 261.08978387 -226.25094056 264.70063589 -230.37841797 268.10131836 C-231.83965731 269.44078775 -232.76645478 270.77365392 -233.83154297 272.43334961 C-233.13407959 272.65361816 -232.43661621 272.87388672 -231.71801758 273.10083008 C-202.82873025 282.29491727 -173.45464843 293.351905 -148.83154297 311.43334961 C-148.58936035 311.60898438 -148.58936035 311.60898438 -147.36376953 312.49780273 C-144.29515198 314.72702266 -141.26627693 317.00187947 -138.26660156 319.32299805 C-136.91453703 320.3691344 -135.55491305 321.40547965 -134.19482422 322.44116211 C-117.48135281 335.58209778 -103.80277839 351.27856718 -92.83154297 369.43334961 C-92.55052734 369.87614258 -92.55052734 369.87614258 -91.12841797 372.11694336 C-79.23601604 391.42870415 -72.04305791 414.0546128 -68.83154297 436.43334961 C-68.7285791 437.13685547 -68.62561523 437.84036133 -68.51953125 438.56518555 C-61.64147422 487.61344691 -69.97684815 541.85333599 -97.83154297 583.43334961 C-98.20504883 583.99618652 -98.57855469 584.55902344 -98.96337891 585.13891602 C-105.82425979 595.38453622 -113.74953202 604.37663855 -122.46826172 613.07397461 C-123.86795796 614.4713573 -125.25502781 615.88190922 -126.61279297 617.32006836 C-136.26421914 627.43213078 -147.93292875 635.21762163 -159.83154297 642.43334961 C-160.42741211 642.79783203 -161.02328125 643.16231445 -161.63720703 643.5378418 C-200.88777373 667.30635707 -248.14515495 678.48636105 -293.80810547 678.63647461 C-295.13318417 678.64353533 -296.4582625 678.65066804 -297.78334045 678.65786743 C-302.00774678 678.67744733 -306.23209554 678.68256039 -310.45654297 678.68334961 C-310.81644884 678.68349689 -310.81644884 678.68349689 -312.63779068 678.68424225 C-334.49267977 678.6856882 -356.15217167 678.48927934 -377.83154297 675.43334961 C-378.19748566 675.38244171 -378.19748566 675.38244171 -380.04937744 675.12481689 C-461.42896115 663.7165839 -536.13025351 633.5290054 -624.83154297 566.43334961 C-625.41129883 565.95269043 -625.99105469 565.47203125 -626.58837891 564.97680664 C-633.05154624 559.61182218 -639.37341613 554.12141682 -645.52392578 548.3996582 C-648.12593039 545.98003709 -650.76710812 543.62412516 -653.46289062 541.30908203 C-658.05593711 537.29473985 -662.37279628 533.03625994 -666.67919922 528.71850586 C-667.49472763 527.90393417 -668.31025604 527.08936249 -669.15049744 526.25010681 C-670.86392022 524.53814543 -672.57555502 522.82442242 -674.28588867 521.109375 C-676.45628169 518.93328568 -678.63113567 516.76171914 -680.80736637 514.59146976 C-682.91292996 512.49042975 -685.014631 510.38554299 -687.11669922 508.28100586 C-687.8866774 507.51305191 -688.65665558 506.74509796 -689.44996643 505.95387268 C-693.56274501 501.82344233 -697.51958946 497.61264113 -701.31866455 493.19120789 C-703.66127869 490.46925508 -706.08878867 487.82690681 -708.51904297 485.18334961 C-708.97859375 484.68061523 -709.43814453 484.17788086 -709.91162109 483.65991211 C-712.48922421 480.85065564 -715.112562 478.10775712 -717.83154297 475.43334961 C-718.46060547 476.07401367 -719.08966797 476.71467773 -719.73779297 477.37475586 C-723.62494049 481.31081755 -727.48873146 485.22231999 -731.70654297 488.80834961 C-735.2644055 491.84765728 -738.54595685 495.10699307 -741.83154297 498.43334961 C-745.05551795 501.69718211 -748.26672197 504.90165147 -751.76904297 507.87084961 C-755.4911199 511.03344942 -758.90020369 514.46305657 -762.33154297 517.93334961 C-766.31930853 521.96633435 -770.34649205 525.82737426 -774.67529297 529.49584961 C-778.28239651 532.73701511 -781.64333192 536.2259734 -785.05200195 539.67333984 C-788.49190818 543.13721407 -792.01708147 546.40459895 -795.74169922 549.56225586 C-798.55064831 552.07718411 -801.18262914 554.75170283 -803.83154297 557.43334961 C-807.05552678 560.69717258 -810.26672118 563.9016508 -813.76904297 566.87084961 C-817.4911199 570.03344942 -820.90020369 573.46305657 -824.33154297 576.93334961 C-828.31930853 580.96633435 -832.34649205 584.82737426 -836.67529297 588.49584961 C-839.6776898 591.19365546 -842.49415114 594.0637878 -845.33154297 596.93334961 C-849.31931128 600.96633071 -853.34649202 604.82737423 -857.67529297 608.49584961 C-860.67770371 611.19366796 -863.49396499 614.06395209 -866.33154297 616.93334961 C-878.58150775 629.308332 -878.58150775 629.308332 -882.83154297 631.43334961 C-886.45560062 582.92028394 -886.45560062 582.92028394 -878.65966797 572.83959961 C-874.86373432 568.46885054 -870.2297256 565.10535301 -865.34130859 562.03881836 C-858.93522039 557.94091602 -853.6225555 552.34847231 -848.33154297 546.93334961 C-844.34633277 542.89798231 -840.31635148 539.03911953 -835.98779297 535.37084961 C-832.38068942 532.12968411 -829.01975402 528.64072582 -825.61108398 525.19335938 C-822.17117776 521.72948515 -818.64600447 518.46210027 -814.92138672 515.30444336 C-812.11243763 512.78951511 -809.4804568 510.11499638 -806.83154297 507.43334961 C-803.60755915 504.16952664 -800.39636476 500.96504842 -796.89404297 497.99584961 C-793.17196604 494.83324979 -789.76288225 491.40364265 -786.33154297 487.93334961 C-782.3437774 483.90036487 -778.31659389 480.03932496 -773.98779297 476.37084961 C-770.38530086 473.13382772 -767.02843189 469.64965096 -763.62426758 466.20654297 C-760.1140401 462.6717075 -756.5410717 459.28420996 -752.71044922 456.09350586 C-750.83154297 454.43334961 -750.83154297 454.43334961 -749.76800537 452.99168396 C-747.52384953 450.19149867 -745.78123621 448.65177621 -742.22935486 447.83485413 C-738.98412447 447.57246264 -735.78671277 447.49699626 -732.53076172 447.49584961 C-731.32777004 447.48162084 -730.12479173 447.46621916 -728.92182922 447.44970703 C-726.40575429 447.42289432 -723.89093313 447.41963988 -721.37475586 447.43139648 C-718.17180909 447.44316755 -714.974951 447.38212396 -711.77318096 447.30116272 C-709.28907226 447.24907636 -706.80639673 447.24368158 -704.3218174 447.25094604 C-702.57518206 447.24597601 -700.82884903 447.19680109 -699.08293152 447.14648438 C-694.16889068 447.2310786 -691.05187088 447.44140027 -687.15933228 450.60546875 C-684.82556905 453.04658517 -682.82732283 455.71064821 -680.83154297 458.43334961 C-679.73999718 459.71503958 -678.63838486 460.98836199 -677.51904297 462.24584961 C-676.96345703 462.88264648 -676.40787109 463.51944336 -675.83544922 464.17553711 C-669.05717796 471.81265365 -662.09804222 479.24804218 -654.81982422 486.40991211 C-653.01171703 488.24998976 -651.35701317 490.14028536 -649.70654297 492.12084961 C-645.64333781 496.87079366 -641.02239099 501.02516189 -636.42480469 505.24658203 C-632.67180831 508.69407923 -629.01345416 512.20608372 -625.44091797 515.84082031 C-622.38217113 518.86755053 -619.09139678 521.62739949 -615.83154297 524.43334961 C-614.73714744 525.3909457 -613.64345635 526.34934718 -612.55029297 527.30834961 C-553.41025573 579.0836885 -484.84290345 618.54784991 -300.83154297 650.43334961 C-276.87840712 648.75739926 -252.41350238 643.55790603 -229.83154297 635.43334961 C-228.94724609 635.12059082 -228.06294922 634.80783203 -227.15185547 634.4855957 C-201.22227807 625.20643426 -177.84536001 611.85822275 -157.19775391 593.63208008 C-155.97760295 592.56150445 -154.73783049 591.51338744 -153.49560547 590.46850586 C-148.7802765 586.48486587 -144.7943285 582.15600948 -140.83154297 577.43334961 C-140.09291016 576.60577148 -139.35427734 575.77819336 -138.59326172 574.92553711 C-115.42842256 548.66892023 -102.86540286 515.47963921 -96.83154297 481.43334961 C-96.71520508 480.78317871 -96.59886719 480.13300781 -96.47900391 479.46313477 C-91.53964369 448.99227325 -108.7585503 410.80465084 -126.01904297 386.68334961 C-127.59030363 384.57316007 -129.20485266 382.50090562 -130.83154297 380.43334961 C-131.51087891 379.53358398 -132.19021484 378.63381836 -132.89013672 377.70678711 C-157.29648331 346.42606312 -192.56060454 324.93009964 -229.08154297 310.55834961 C-229.35630966 310.44970078 -229.35630966 310.44970078 -230.74679565 309.89987183 C-240.94124842 305.89943467 -251.36863266 302.65223984 -261.83154297 299.43334961 C-262.22980891 292.67095644 -262.52955293 285.91141766 -262.71234989 279.14016724 C-262.80022599 275.9930564 -262.91866082 272.85408668 -263.11401367 269.71166992 C-264.43907935 247.82348881 -264.43907935 247.82348881 -258.18481445 240.32617188 C-254.70043201 236.81588529 -250.9242127 233.83440395 -246.89825439 230.97213745 C-243.87934801 228.72438463 -241.34143302 226.10476283 -238.76904297 223.37084961 C-235.95102202 220.49701758 -233.08929443 217.72669329 -230.01904297 215.12084961 C-226.07752772 211.76446652 -222.47016535 208.11016774 -218.83154297 204.43334961 C-214.68646688 200.24489797 -210.52237928 196.20664236 -206.01904297 192.40209961 C-202.83333546 189.53496285 -199.84569539 186.47903082 -196.83154297 183.43334961 C-192.68645966 179.24490769 -188.52237938 175.20664244 -184.01904297 171.40209961 C-180.83333546 168.53496285 -177.84569539 165.47903082 -174.83154297 162.43334961 C-170.68645966 158.24490769 -166.52237938 154.20664244 -162.01904297 150.40209961 C-158.1785766 146.94567988 -154.59999675 143.22032366 -150.96655273 139.54882812 C-147.41696479 135.97636728 -143.79996418 132.5873056 -139.95263672 129.33569336 C-136.96015076 126.65182474 -134.15721038 123.79100872 -131.33154297 120.93334961 C-127.94147916 117.5049041 -124.5796034 114.11074262 -120.89404297 110.99584961 C-116.98884318 107.68762303 -113.42873371 104.0682122 -109.83154297 100.43334961 C-105.68646206 96.24490445 -101.52237935 92.20664241 -97.01904297 88.40209961 C-93.83333546 85.53496285 -90.84569539 82.47903082 -87.83154297 79.43334961 C-83.68645966 75.24490769 -79.52237938 71.20664244 -75.01904297 67.40209961 C-71.83333546 64.53496285 -68.84569539 61.47903082 -65.83154297 58.43334961 C-61.68645966 54.24490769 -57.52237938 50.20664244 -53.01904297 46.40209961 C-49.83333546 43.53496285 -46.84569539 40.47903082 -43.83154297 37.43334961 C-39.68645966 33.24490769 -35.52237938 29.20664244 -31.01904297 25.40209961 C-27.18702272 21.95328139 -23.61592884 18.23666796 -19.99072266 14.57299805 C-16.21191858 10.76958971 -12.38428761 7.12566465 -8.28466797 3.66772461 C-4.15861477 0.1627977 -4.15861477 0.1627977 0 0 Z " fill="#EAE2D2" transform="translate(882.83154296875,715.566650390625)"/>
<path d="M0 0 C390.39 0 780.78 0 1183 0 C1183 101.97 1183 203.94 1183 309 C1168.22222222 323.77777778 1168.22222222 323.77777778 1163.1875 328.03125 C1160.00179249 330.89838676 1157.01415242 333.95431879 1154 337 C1149.85491669 341.18844192 1145.69083641 345.22670717 1141.1875 349.03125 C1138.00179249 351.89838676 1135.01415242 354.95431879 1132 358 C1127.85491669 362.18844192 1123.69083641 366.22670717 1119.1875 370.03125 C1116.00179249 372.89838676 1113.01415242 375.95431879 1110 379 C1105.85491669 383.18844192 1101.69083641 387.22670717 1097.1875 391.03125 C1094.00179232 393.89838692 1091.01415455 396.95432076 1088 400 C1080.71895711 407.35711491 1080.71895711 407.35711491 1077.0625 410.4375 C1072.97378849 413.89038596 1069.26265302 417.70077198 1065.5 421.5 C1061.17671345 425.8653112 1056.85323169 430.10613961 1052.15234375 434.06640625 C1048.32041767 437.50888068 1044.75498084 441.22666402 1041.13256836 444.88696289 C1037.60521622 448.43702635 1034.01118184 451.8008981 1030.1875 455.03125 C1027.00179249 457.89838676 1024.01415242 460.95431879 1021 464 C1016.85491669 468.18844192 1012.69083641 472.22670717 1008.1875 476.03125 C1005.00179249 478.89838676 1002.01415242 481.95431879 999 485 C994.85491669 489.18844192 990.69083641 493.22670717 986.1875 497.03125 C983.00179249 499.89838676 980.01415242 502.95431879 977 506 C972.85491669 510.18844192 968.69083641 514.22670717 964.1875 518.03125 C961.00179249 520.89838676 958.01415242 523.95431879 955 527 C950.85491669 531.18844192 946.69083641 535.22670717 942.1875 539.03125 C939.00179249 541.89838676 936.01415242 544.95431879 933 548 C928.85491669 552.18844192 924.69083641 556.22670717 920.1875 560.03125 C917.00179249 562.89838676 914.01415242 565.95431879 911 569 C906.85491669 573.18844192 902.69083641 577.22670717 898.1875 581.03125 C895.00179249 583.89838676 892.01415242 586.95431879 889 590 C884.85491669 594.18844192 880.69083641 598.22670717 876.1875 602.03125 C873.00179249 604.89838676 870.01415242 607.95431879 867 611 C862.85491669 615.18844192 858.69083641 619.22670717 854.1875 623.03125 C851.00179249 625.89838676 848.01415242 628.95431879 845 632 C840.85491669 636.18844192 836.69083641 640.22670717 832.1875 644.03125 C829.00179249 646.89838676 826.01415242 649.95431879 823 653 C818.85491669 657.18844192 814.69083641 661.22670717 810.1875 665.03125 C807.00179249 667.89838676 804.01415242 670.95431879 801 674 C796.85491669 678.18844192 792.69083641 682.22670717 788.1875 686.03125 C785.00179249 688.89838676 782.01415242 691.95431879 779 695 C774.85491669 699.18844192 770.69083641 703.22670717 766.1875 707.03125 C762.34703363 710.48766973 758.76845378 714.21302595 755.13500977 717.88452148 C751.58542182 721.45698233 747.96842121 724.84604401 744.12109375 728.09765625 C741.12860779 730.78152487 738.32566741 733.64234089 735.5 736.5 C732.10993619 739.92844551 728.74806043 743.32260699 725.0625 746.4375 C721.15730021 749.74572658 717.59719074 753.36513741 714 757 C709.8549191 761.18844516 705.69083638 765.2267072 701.1875 769.03125 C698.00179249 771.89838676 695.01415242 774.95431879 692 778 C687.85491669 782.18844192 683.69083641 786.22670717 679.1875 790.03125 C676.00179249 792.89838676 673.01415242 795.95431879 670 799 C665.85491669 803.18844192 661.69083641 807.22670717 657.1875 811.03125 C654.00179249 813.89838676 651.01415242 816.95431879 648 820 C643.85491669 824.18844192 639.69083641 828.22670717 635.1875 832.03125 C631.34703363 835.48766973 627.76845378 839.21302595 624.13500977 842.88452148 C620.58542182 846.45698233 616.96842121 849.84604401 613.12109375 853.09765625 C610.12860779 855.78152487 607.32566741 858.64234089 604.5 861.5 C601.10993619 864.92844551 597.74806043 868.32260699 594.0625 871.4375 C590.15730021 874.74572658 586.59719074 878.36513741 583 882 C578.8549191 886.18844516 574.69083638 890.2267072 570.1875 894.03125 C567.00179249 896.89838676 564.01415242 899.95431879 561 903 C556.85491669 907.18844192 552.69083641 911.22670717 548.1875 915.03125 C545.00179249 917.89838676 542.01415242 920.95431879 539 924 C534.85491669 928.18844192 530.69083641 932.22670717 526.1875 936.03125 C522.34703363 939.48766973 518.76845378 943.21302595 515.13500977 946.88452148 C511.58542182 950.45698233 507.96842121 953.84604401 504.12109375 957.09765625 C501.12860779 959.78152487 498.32566741 962.64234089 495.5 965.5 C491.54145349 969.50336447 487.54800425 973.33684802 483.24609375 976.97265625 C479.25182713 980.57791603 475.51282728 984.44988231 471.74633789 988.29077148 C471.16231201 988.88317627 470.57828613 989.47558105 469.9765625 990.0859375 C469.45143066 990.6226709 468.92629883 991.1594043 468.38525391 991.71240234 C465.38891148 994.4975116 462.39150653 994.13802802 458.53341675 994.12025452 C457.86200531 994.12110894 457.19059387 994.12196337 456.49883664 994.12284368 C454.23861825 994.12449688 451.97847332 994.11897972 449.71826172 994.11352539 C448.10222373 994.11324346 446.48618562 994.11340137 444.87014771 994.1139679 C440.47370099 994.11425564 436.07728137 994.10836269 431.68084097 994.10139394 C427.0897291 994.0951565 422.49861667 994.09455629 417.90750122 994.09336853 C409.20940024 994.09025637 400.51131179 994.08204452 391.81321633 994.07201904 C381.9125136 994.06085434 372.01181028 994.05534655 362.11110282 994.05032361 C341.74072826 994.03986182 321.37036483 994.0222646 301 994 C297.84667588 982.86295973 294.86800133 971.70544564 292.15625 960.453125 C291.79465027 958.96324041 291.43274069 957.473431 291.07055664 955.98368835 C290.28889703 952.76658837 289.50889203 949.54909383 288.73022461 946.33126831 C286.79088731 938.3181292 284.84216008 930.3072714 282.89341736 922.29641533 C282.41949667 920.34822285 281.9456719 918.40000704 281.47193909 916.45176888 C277.13317157 898.61095773 272.75949961 880.77883366 268.375 862.94921875 C268.29359048 862.61814393 268.29359048 862.61814393 267.88160896 860.94270468 C264.61474404 847.65720778 261.34573088 834.37223983 258.0751543 821.0876562 C256.83334474 816.04344685 255.59211662 810.9990946 254.35126019 805.9546507 C253.6295557 803.02088339 252.90752464 800.08719739 252.18463135 797.15372276 C250.66267679 790.9767483 249.14911571 784.7978339 247.64372063 778.61680412 C247.06766609 776.27507103 246.47570527 773.93822707 245.87660217 771.60231018 C245.01389312 768.19839763 244.22772829 764.78461333 243.49939346 761.34945488 C243.14039777 759.6605177 242.76787891 757.97443406 242.38671494 756.2903614 C238.38837754 738.10786279 235.14701488 714.94666497 245.19846344 698.05794525 C258.36221277 677.86099359 277.901453 661.43234808 295.60467565 645.34632933 C302.84453717 638.75737438 309.92011551 632.00203131 316.98757374 625.22920692 C325.62365113 616.95525813 334.27988453 608.70521559 343.06349182 600.5877533 C343.68024713 600.01753987 344.29700245 599.44732645 344.93244731 598.85983384 C347.80767528 596.20423943 350.68822503 593.5547486 353.5771637 590.91407776 C354.59833364 589.97483352 355.61945465 589.03553607 356.64051819 588.09617615 C357.08315115 587.69533686 357.5257841 587.29449757 357.98183018 586.88151163 C361.31188648 583.80918516 364.24216102 580.46410298 367.20227808 577.0372358 C369.99050974 573.87752278 372.95715564 570.91157095 375.94482422 567.94165039 C376.60740171 567.27892404 377.26997921 566.61619768 377.95263481 565.93338871 C380.15095181 563.73576056 382.35281112 561.54171766 384.5546875 559.34765625 C386.14062416 557.76364076 387.72633182 556.17939596 389.31182861 554.59494019 C392.71575128 551.19416924 396.12116177 547.79489932 399.52789307 544.39694214 C404.46145782 539.47598951 409.39173054 534.55174886 414.32113719 529.62663138 C422.33147282 521.62334855 430.34367447 513.62193684 438.35742188 505.62207031 C438.59676433 505.38314176 438.59676433 505.38314176 439.80798221 504.1740185 C443.69135506 500.29738946 447.57481878 496.42085146 451.45828629 492.54431725 C454.85309273 489.15556396 458.24786286 485.76677431 461.64257812 482.37792969 C462.12067452 481.90066142 462.59877092 481.42339315 463.09135509 480.9316622 C471.07693512 472.9597913 479.06053378 464.98593893 487.04273415 457.01068401 C491.95704268 452.10084243 496.87311534 447.19278017 501.7915206 442.28704238 C505.5627905 438.52523238 509.3314862 434.76085421 513.09926605 430.99554825 C514.64027361 429.45640743 516.18214276 427.91812867 517.7249527 426.38079453 C519.83736653 424.27564034 521.94662602 422.16737309 524.05517578 420.05834961 C524.66034468 419.45677567 525.26551357 418.85520174 525.88902092 418.23539829 C530.14895908 413.96525917 534.00560833 409.56501905 538 405 C556.48 386.52 574.96 368.04 594 349 C397.98 348.67 201.96 348.34 0 348 C0 233.16 0 118.32 0 0 Z M7 1 C7 106.93 7 212.86 7 322 C226.78 322 446.56 322 673 322 C668.76770211 326.83691187 664.62140672 331.5247622 660.0802002 336.0333252 C659.52787861 336.58579564 658.97555703 337.13826608 658.40649843 337.70747805 C656.58130819 339.53198167 654.75258446 341.3528995 652.92382812 343.17382812 C651.60389755 344.49183672 650.28419655 345.81007525 648.96470642 347.12852478 C646.13537028 349.9547132 643.30449133 352.77934366 640.47239685 355.60276794 C635.98928729 360.07229393 631.51004907 364.54568632 627.03137207 369.01965332 C616.71621746 379.32279215 606.39604652 389.62090157 596.07582855 399.9189682 C586.61294386 409.36164548 577.15113445 418.80539365 567.69337606 428.25320578 C563.24600233 432.69561331 558.79620555 437.13557477 554.34450531 441.57364655 C551.57071947 444.33994512 548.79903208 447.10833903 546.02789497 449.87729073 C544.74812315 451.15519904 543.46749145 452.43224693 542.18591118 453.7083416 C540.42818796 455.45878094 538.67364792 457.212354 536.9197998 458.9666748 C536.41968651 459.46319314 535.91957322 459.95971147 535.40430498 460.47127581 C532.67844482 463.2049427 530.09023686 466.01604666 527.56406403 468.93593597 C524.20989659 472.80417341 520.68517931 476.44990985 517.05517578 480.05834961 C516.72388703 480.38971279 516.72388703 480.38971279 515.04736519 482.06661129 C512.84904819 484.26423944 510.64718888 486.45828234 508.4453125 488.65234375 C506.85937584 490.23635924 505.27366818 491.82060404 503.68817139 493.40505981 C500.28424872 496.80583076 496.87883823 500.20510068 493.47210693 503.60305786 C488.53854218 508.52401049 483.60826946 513.44825114 478.67886281 518.37336862 C470.66852718 526.37665145 462.65632553 534.37806316 454.64257812 542.37792969 C454.40323567 542.61685824 454.40323567 542.61685824 453.19201779 543.8259815 C449.30864494 547.70261054 445.42518122 551.57914854 441.54171371 555.45568275 C438.14690727 558.84443604 434.75213714 562.23322569 431.35742188 565.62207031 C430.87932548 566.09933858 430.40122908 566.57660685 429.90864491 567.0683378 C421.92306488 575.0402087 413.93946622 583.01406107 405.95726585 590.98931599 C401.04295732 595.89915757 396.12688466 600.80721983 391.2084794 605.71295762 C387.4372095 609.47476762 383.6685138 613.23914579 379.90073395 617.00445175 C378.35972639 618.54359257 376.81785724 620.08187133 375.2750473 621.61920547 C373.16263347 623.72435966 371.05337398 625.83262691 368.94482422 627.94165039 C368.33965532 628.54322433 367.73448643 629.14479826 367.11097908 629.76460171 C363.43557775 633.44880425 359.97345481 637.26838829 356.56924808 641.20407486 C354.74845324 643.28788256 352.85132998 645.27179973 350.89332581 647.22692871 C350.16008591 647.96154327 349.42684601 648.69615784 348.67138672 649.45303345 C347.89239014 650.22843475 347.11339355 651.00383606 346.31079102 651.80273438 C345.46226347 652.65097907 344.6139576 653.49944557 343.76585388 654.34811401 C341.48758163 656.62667041 339.20626371 658.90215422 336.92434049 661.17705345 C334.5309151 663.56418085 332.14036611 665.95418543 329.74949646 668.34387207 C325.23266023 672.85761384 320.71328351 677.36880285 316.19296354 681.8790555 C311.04217555 687.01862346 305.8942641 692.16106858 300.74657929 697.30374432 C290.16755911 707.87234286 279.58497443 718.437365 269 729 C272.06943584 743.25768859 275.50778509 757.41776619 279.00841427 771.57462955 C279.79879711 774.77312306 280.58667797 777.97223288 281.37481689 781.17127991 C282.71920312 786.62693815 284.0648888 792.08227433 285.41149902 797.53738403 C288.56887838 810.32840006 291.7194334 823.12109802 294.87020111 835.91374397 C295.57182279 838.76244205 296.27353247 841.61111843 296.97531891 844.45977592 C303.05234518 869.12786367 309.10373047 893.80210312 315.12142944 918.48474121 C315.74577136 921.04515843 316.37051238 923.60547796 316.99536133 926.16577148 C317.96228755 930.12807505 318.92828526 934.09060372 319.89342499 938.05334282 C320.23619693 939.4604386 320.57918609 940.86748149 320.92243195 942.27446175 C323.01048588 950.83590272 325.03916259 959.40844794 327 968 C341.29121276 968.42296258 355.58035794 968.73906397 369.87634087 968.93261909 C376.51654715 969.02493686 383.15283805 969.15043636 389.79052734 969.35791016 C395.58528569 969.5389481 401.3772083 969.65381006 407.17471611 969.69359291 C410.23836203 969.7168142 413.29390778 969.77012128 416.35491562 969.90314102 C436.30197579 970.73618612 436.30197579 970.73618612 444.34967041 964.11907959 C448.26584748 960.41778229 451.709237 956.41229738 455.08935928 952.22314072 C457.55202159 949.35769103 460.28011961 946.95897578 463.1783886 944.54512215 C466.30802181 941.89051339 469.13134038 938.93032505 472 936 C476.16400343 931.78762267 480.35309518 927.72738408 484.87890625 923.90234375 C487.87139221 921.21847513 490.67433259 918.35765911 493.5 915.5 C496.89006381 912.07155449 500.25193957 908.67739301 503.9375 905.5625 C507.84269979 902.25427342 511.40280926 898.63486259 515 895 C519.1450809 890.81155484 523.30916362 886.7732928 527.8125 882.96875 C530.99820751 880.10161324 533.98584758 877.04568121 537 874 C541.14508331 869.81155808 545.30916359 865.77329283 549.8125 861.96875 C552.99820751 859.10161324 555.98584758 856.04568121 559 853 C563.14508331 848.81155808 567.30916359 844.77329283 571.8125 840.96875 C575.65296637 837.51233027 579.23154622 833.78697405 582.86499023 830.11547852 C586.41457818 826.54301767 590.03157879 823.15395599 593.87890625 819.90234375 C596.87139221 817.21847513 599.67433259 814.35765911 602.5 811.5 C605.89006381 808.07155449 609.25193957 804.67739301 612.9375 801.5625 C616.84269979 798.25427342 620.40280926 794.63486259 624 791 C628.1450809 786.81155484 632.30916362 782.7732928 636.8125 778.96875 C639.99820751 776.10161324 642.98584758 773.04568121 646 770 C650.14508331 765.81155808 654.30916359 761.77329283 658.8125 757.96875 C661.99820751 755.10161324 664.98584758 752.04568121 668 749 C672.14508331 744.81155808 676.30916359 740.77329283 680.8125 736.96875 C684.65296637 733.51233027 688.23154622 729.78697405 691.86499023 726.11547852 C695.41457818 722.54301767 699.03157879 719.15395599 702.87890625 715.90234375 C705.87139221 713.21847513 708.67433259 710.35765911 711.5 707.5 C714.89006381 704.07155449 718.25193957 700.67739301 721.9375 697.5625 C725.84269979 694.25427342 729.40280926 690.63486259 733 687 C737.1450809 682.81155484 741.30916362 678.7732928 745.8125 674.96875 C748.99820751 672.10161324 751.98584758 669.04568121 755 666 C759.14508331 661.81155808 763.30916359 657.77329283 767.8125 653.96875 C770.99820751 651.10161324 773.98584758 648.04568121 777 645 C781.14508331 640.81155808 785.30916359 636.77329283 789.8125 632.96875 C792.99820751 630.10161324 795.98584758 627.04568121 799 624 C803.14508331 619.81155808 807.30916359 615.77329283 811.8125 611.96875 C814.99820751 609.10161324 817.98584758 606.04568121 821 603 C825.14508331 598.81155808 829.30916359 594.77329283 833.8125 590.96875 C836.99820751 588.10161324 839.98584758 585.04568121 843 582 C847.14508331 577.81155808 851.30916359 573.77329283 855.8125 569.96875 C858.99820751 567.10161324 861.98584758 564.04568121 865 561 C869.14508331 556.81155808 873.30916359 552.77329283 877.8125 548.96875 C880.99820751 546.10161324 883.98584758 543.04568121 887 540 C891.14508331 535.81155808 895.30916359 531.77329283 899.8125 527.96875 C902.99820751 525.10161324 905.98584758 522.04568121 909 519 C913.14508331 514.81155808 917.30916359 510.77329283 921.8125 506.96875 C924.99820751 504.10161324 927.98584758 501.04568121 931 498 C935.14508331 493.81155808 939.30916359 489.77329283 943.8125 485.96875 C946.99820751 483.10161324 949.98584758 480.04568121 953 477 C957.14508331 472.81155808 961.30916359 468.77329283 965.8125 464.96875 C968.99820751 462.10161324 971.98584758 459.04568121 975 456 C979.14508331 451.81155808 983.30916359 447.77329283 987.8125 443.96875 C990.99820768 441.10161308 993.98584545 438.04567924 997 435 C1004.28104289 427.64288509 1004.28104289 427.64288509 1007.9375 424.5625 C1012.02621151 421.10961404 1015.73734698 417.29922802 1019.5 413.5 C1023.82328655 409.1346888 1028.14676831 404.89386039 1032.84765625 400.93359375 C1036.67958233 397.49111932 1040.24501916 393.77333598 1043.86743164 390.11303711 C1047.39478378 386.56297365 1050.98881816 383.1991019 1054.8125 379.96875 C1057.99820751 377.10161324 1060.98584758 374.04568121 1064 371 C1068.14508331 366.81155808 1072.30916359 362.77329283 1076.8125 358.96875 C1079.99820751 356.10161324 1082.98584758 353.04568121 1086 350 C1090.14508331 345.81155808 1094.30916359 341.77329283 1098.8125 337.96875 C1101.99820751 335.10161324 1104.98584758 332.04568121 1108 329 C1112.14508331 324.81155808 1116.30916359 320.77329283 1120.8125 316.96875 C1124.65143075 313.51371232 1128.22864904 309.78994538 1131.8605957 306.11987305 C1134.88663854 303.07429423 1137.91629349 300.0980841 1141.1875 297.3125 C1146.3703294 292.80938593 1151.14511808 287.85488192 1156 283 C1156 189.94 1156 96.88 1156 1 C776.83 1 397.66 1 7 1 Z " fill="#EAE1D1" transform="translate(0,0)"/>
<path d="M0 0 C0.23799568 0.20439445 0.23799568 0.20439445 1.44239807 1.23875427 C1.75583916 1.50772774 1.75583916 1.50772774 3.34204102 2.86889648 C3.96240738 3.40143539 4.58277374 3.9339743 5.22193909 4.48265076 C8.87739251 7.60211615 12.61787141 10.61829547 16.34570312 13.65039062 C18.13576465 15.11075959 19.91955229 16.57858955 21.703125 18.046875 C30.94425761 25.63431916 40.36587078 32.91944035 50 40 C50.68223633 40.50466797 51.36447266 41.00933594 52.06738281 41.52929688 C78.19638513 60.83092598 105.63477819 78.18201338 134 94 C134.89960449 94.50466797 135.79920898 95.00933594 136.72607422 95.52929688 C196.80979143 129.12449359 261.38661546 153.06006519 328 170 C328.65232605 170.16608765 329.3046521 170.33217529 329.97674561 170.5032959 C399.29708834 188.07633454 470.6503585 195.69990672 542 198 C542 198.33 542 198.66 542 199 C512.7604751 199.25355041 483.52123071 199.44649265 454.28084499 199.56171862 C450.80368329 199.57547115 447.32652373 199.58970921 443.84936523 199.60424805 C443.50334536 199.60569075 443.50334536 199.60569075 441.7522751 199.61299173 C430.64750572 199.66044156 419.54338337 199.7469323 408.43899376 199.84868076 C396.9861607 199.95272153 385.53365873 200.0128891 374.08037275 200.03497344 C367.67163051 200.04851955 361.26423089 200.08048058 354.8559742 200.16303062 C324.38400996 200.54407563 296.9656023 198.3805443 267.89599538 188.62569118 C264.21914588 187.41230621 260.50274169 186.33451315 256.78881454 185.24078083 C253.0204083 184.114279 249.29236647 182.87205836 245.5625 181.625 C244.76265686 181.36130615 243.96281372 181.0976123 243.13873291 180.82592773 C172.83182236 157.63027345 104.47569619 124.85496008 44 82 C42.82554519 81.17444452 41.65106621 80.34892341 40.4765625 79.5234375 C34.25003144 75.12772627 28.10480985 70.62554901 22 66.0625 C21.70416016 65.84178833 21.70416016 65.84178833 20.20703125 64.72485352 C18.92902686 63.7641362 17.66991669 62.77798922 16.42626953 61.77319336 C14.43650202 60.31900928 12.57208078 59.21290018 10.41357422 58.05688477 C5.40074034 55.13448661 0.91548476 52.24822068 -0.72790527 46.41732788 C-1.75697473 38.8961621 -1.27479251 31.36599223 -0.875 23.8125 C-0.80468969 21.50214201 -0.74082619 19.19157831 -0.68359375 16.88085938 C-0.53015307 11.24938016 -0.29670677 5.62565461 0 0 Z " fill="#EBE3D2" transform="translate(0,1531)"/>
</svg>
