<?xml version="1.0" encoding="UTF-8"?>
<!-- Generator: visioncortex VTracer 0.6.12 -->
<svg version="1.1" xmlns="http://www.w3.org/2000/svg" width="1184" height="1730">
<path d="M0 0 C390.39 0 780.78 0 1183 0 C1183 101.97 1183 203.94 1183 309 C1168.22222222 323.77777778 1168.22222222 323.77777778 1163.1875 328.03125 C1160.00179249 330.89838676 1157.01415242 333.95431879 1154 337 C1149.85491669 341.18844192 1145.69083641 345.22670717 1141.1875 349.03125 C1138.00179249 351.89838676 1135.01415242 354.95431879 1132 358 C1127.85491669 362.18844192 1123.69083641 366.22670717 1119.1875 370.03125 C1116.00179249 372.89838676 1113.01415242 375.95431879 1110 379 C1105.85491669 383.18844192 1101.69083641 387.22670717 1097.1875 391.03125 C1094.00179232 393.89838692 1091.01415455 396.95432076 1088 400 C1080.71895711 407.35711491 1080.71895711 407.35711491 1077.0625 410.4375 C1072.97378849 413.89038596 1069.26265302 417.70077198 1065.5 421.5 C1061.17671345 425.8653112 1056.85323169 430.10613961 1052.15234375 434.06640625 C1048.32041767 437.50888068 1044.75498084 441.22666402 1041.13256836 444.88696289 C1037.60521622 448.43702635 1034.01118184 451.8008981 1030.1875 455.03125 C1027.00179249 457.89838676 1024.01415242 460.95431879 1021 464 C1016.85491669 468.18844192 1012.69083641 472.22670717 1008.1875 476.03125 C1005.00179249 478.89838676 1002.01415242 481.95431879 999 485 C994.85491669 489.18844192 990.69083641 493.22670717 986.1875 497.03125 C983.00179249 499.89838676 980.01415242 502.95431879 977 506 C972.85491669 510.18844192 968.69083641 514.22670717 964.1875 518.03125 C961.00179249 520.89838676 958.01415242 523.95431879 955 527 C950.85491669 531.18844192 946.69083641 535.22670717 942.1875 539.03125 C939.00179249 541.89838676 936.01415242 544.95431879 933 548 C928.85491669 552.18844192 924.69083641 556.22670717 920.1875 560.03125 C917.00179249 562.89838676 914.01415242 565.95431879 911 569 C906.85491669 573.18844192 902.69083641 577.22670717 898.1875 581.03125 C895.00179249 583.89838676 892.01415242 586.95431879 889 590 C884.85491669 594.18844192 880.69083641 598.22670717 876.1875 602.03125 C873.00179249 604.89838676 870.01415242 607.95431879 867 611 C862.85491669 615.18844192 858.69083641 619.22670717 854.1875 623.03125 C851.00179249 625.89838676 848.01415242 628.95431879 845 632 C840.85491669 636.18844192 836.69083641 640.22670717 832.1875 644.03125 C829.00179249 646.89838676 826.01415242 649.95431879 823 653 C818.85491669 657.18844192 814.69083641 661.22670717 810.1875 665.03125 C807.00179249 667.89838676 804.01415242 670.95431879 801 674 C796.85491669 678.18844192 792.69083641 682.22670717 788.1875 686.03125 C785.00179249 688.89838676 782.01415242 691.95431879 779 695 C774.85491669 699.18844192 770.69083641 703.22670717 766.1875 707.03125 C762.34703363 710.48766973 758.76845378 714.21302595 755.13500977 717.88452148 C751.58542182 721.45698233 747.96842121 724.84604401 744.12109375 728.09765625 C741.12860779 730.78152487 738.32566741 733.64234089 735.5 736.5 C732.10993619 739.92844551 728.74806043 743.32260699 725.0625 746.4375 C721.15730021 749.74572658 717.59719074 753.36513741 714 757 C709.8549191 761.18844516 705.69083638 765.2267072 701.1875 769.03125 C698.00179249 771.89838676 695.01415242 774.95431879 692 778 C687.85491669 782.18844192 683.69083641 786.22670717 679.1875 790.03125 C676.00179249 792.89838676 673.01415242 795.95431879 670 799 C665.85491669 803.18844192 661.69083641 807.22670717 657.1875 811.03125 C654.00179249 813.89838676 651.01415242 816.95431879 648 820 C643.85491669 824.18844192 639.69083641 828.22670717 635.1875 832.03125 C631.34703363 835.48766973 627.76845378 839.21302595 624.13500977 842.88452148 C620.58542182 846.45698233 616.96842121 849.84604401 613.12109375 853.09765625 C610.12860779 855.78152487 607.32566741 858.64234089 604.5 861.5 C601.10993619 864.92844551 597.74806043 868.32260699 594.0625 871.4375 C590.15730021 874.74572658 586.59719074 878.36513741 583 882 C578.8549191 886.18844516 574.69083638 890.2267072 570.1875 894.03125 C567.00179249 896.89838676 564.01415242 899.95431879 561 903 C556.85491669 907.18844192 552.69083641 911.22670717 548.1875 915.03125 C545.00179249 917.89838676 542.01415242 920.95431879 539 924 C534.85491669 928.18844192 530.69083641 932.22670717 526.1875 936.03125 C522.34703363 939.48766973 518.76845378 943.21302595 515.13500977 946.88452148 C511.58542182 950.45698233 507.96842121 953.84604401 504.12109375 957.09765625 C501.12860779 959.78152487 498.32566741 962.64234089 495.5 965.5 C491.54145349 969.50336447 487.54800425 973.33684802 483.24609375 976.97265625 C479.25182713 980.57791603 475.51282728 984.44988231 471.74633789 988.29077148 C471.16231201 988.88317627 470.57828613 989.47558105 469.9765625 990.0859375 C469.45143066 990.6226709 468.92629883 991.1594043 468.38525391 991.71240234 C465.38891148 994.4975116 462.39150653 994.13802802 458.53341675 994.12025452 C457.86200531 994.12110894 457.19059387 994.12196337 456.49883664 994.12284368 C454.23861825 994.12449688 451.97847332 994.11897972 449.71826172 994.11352539 C448.10222373 994.11324346 446.48618562 994.11340137 444.87014771 994.1139679 C440.47370099 994.11425564 436.07728137 994.10836269 431.68084097 994.10139394 C427.0897291 994.0951565 422.49861667 994.09455629 417.90750122 994.09336853 C409.20940024 994.09025637 400.51131179 994.08204452 391.81321633 994.07201904 C381.9125136 994.06085434 372.01181028 994.05534655 362.11110282 994.05032361 C341.74072826 994.03986182 321.37036483 994.0222646 301 994 C297.84667588 982.86295973 294.86800133 971.70544564 292.15625 960.453125 C291.79465027 958.96324041 291.43274069 957.473431 291.07055664 955.98368835 C290.28889703 952.76658837 289.50889203 949.54909383 288.73022461 946.33126831 C286.79088731 938.3181292 284.84216008 930.3072714 282.89341736 922.29641533 C282.41949667 920.34822285 281.9456719 918.40000704 281.47193909 916.45176888 C277.13317157 898.61095773 272.75949961 880.77883366 268.375 862.94921875 C268.29359048 862.61814393 268.29359048 862.61814393 267.88160896 860.94270468 C264.61474404 847.65720778 261.34573088 834.37223983 258.0751543 821.0876562 C256.83334474 816.04344685 255.59211662 810.9990946 254.35126019 805.9546507 C253.6295557 803.02088339 252.90752464 800.08719739 252.18463135 797.15372276 C250.66267679 790.9767483 249.14911571 784.7978339 247.64372063 778.61680412 C247.06766609 776.27507103 246.47570527 773.93822707 245.87660217 771.60231018 C245.01389312 768.19839763 244.22772829 764.78461333 243.49939346 761.34945488 C243.14039777 759.6605177 242.76787891 757.97443406 242.38671494 756.2903614 C238.38837754 738.10786279 235.14701488 714.94666497 245.19846344 698.05794525 C258.36221277 677.86099359 277.901453 661.43234808 295.60467565 645.34632933 C302.84453717 638.75737438 309.92011551 632.00203131 316.98757374 625.22920692 C325.62365113 616.95525813 334.27988453 608.70521559 343.06349182 600.5877533 C343.68024713 600.01753987 344.29700245 599.44732645 344.93244731 598.85983384 C347.80767528 596.20423943 350.68822503 593.5547486 353.5771637 590.91407776 C354.59833364 589.97483352 355.61945465 589.03553607 356.64051819 588.09617615 C357.08315115 587.69533686 357.5257841 587.29449757 357.98183018 586.88151163 C361.31188648 583.80918516 364.24216102 580.46410298 367.20227808 577.0372358 C369.99050974 573.87752278 372.95715564 570.91157095 375.94482422 567.94165039 C376.60740171 567.27892404 377.26997921 566.61619768 377.95263481 565.93338871 C380.15095181 563.73576056 382.35281112 561.54171766 384.5546875 559.34765625 C386.14062416 557.76364076 387.72633182 556.17939596 389.31182861 554.59494019 C392.71575128 551.19416924 396.12116177 547.79489932 399.52789307 544.39694214 C404.46145782 539.47598951 409.39173054 534.55174886 414.32113719 529.62663138 C422.33147282 521.62334855 430.34367447 513.62193684 438.35742188 505.62207031 C438.59676433 505.38314176 438.59676433 505.38314176 439.80798221 504.1740185 C443.69135506 500.29738946 447.57481878 496.42085146 451.45828629 492.54431725 C454.85309273 489.15556396 458.24786286 485.76677431 461.64257812 482.37792969 C462.12067452 481.90066142 462.59877092 481.42339315 463.09135509 480.9316622 C471.07693512 472.9597913 479.06053378 464.98593893 487.04273415 457.01068401 C491.95704268 452.10084243 496.87311534 447.19278017 501.7915206 442.28704238 C505.5627905 438.52523238 509.3314862 434.76085421 513.09926605 430.99554825 C514.64027361 429.45640743 516.18214276 427.91812867 517.7249527 426.38079453 C519.83736653 424.27564034 521.94662602 422.16737309 524.05517578 420.05834961 C524.66034468 419.45677567 525.26551357 418.85520174 525.88902092 418.23539829 C530.14895908 413.96525917 534.00560833 409.56501905 538 405 C556.48 386.52 574.96 368.04 594 349 C397.98 348.67 201.96 348.34 0 348 C0 233.16 0 118.32 0 0 Z " fill="#B7231F" transform="translate(0,0)"/>
<path d="M0 0 C0.50578331 -0.02061745 0.50578331 -0.02061745 3.06535339 -0.12495422 C4.16929947 -0.1559874 5.27324554 -0.18702057 6.41064453 -0.21899414 C7.55362503 -0.25216232 8.69660553 -0.28533051 9.8742218 -0.31950378 C13.59701368 -0.41418414 17.31969208 -0.46642486 21.04345703 -0.50415039 C21.35818026 -0.50758831 21.35818026 -0.50758831 22.95087051 -0.52498627 C42.65553207 -0.7051247 58.56986466 0.9103161 75.46484375 11.74536133 C78.8441922 13.85524169 82.34634917 15.52821495 85.95117188 17.21264648 C122.72167503 34.473607 156.76167686 58.682329 187.16845703 85.43334961 C187.4062085 85.64145264 187.4062085 85.64145264 188.609375 86.69458008 C195.46562746 92.72837598 201.97876514 99.1220691 208.46188354 105.55154419 C209.37337301 106.4550124 210.28633923 107.35699381 211.20095825 108.2572937 C216.913925 113.89017768 222.192808 119.70904966 227.20092773 125.9777832 C228.76439623 127.92906327 230.35030129 129.83765862 231.99658203 131.71850586 C249.10938344 151.29469623 263.05490533 173.48135691 275.16845703 196.43334961 C275.40298584 196.87710938 275.40298584 196.87710938 276.58984375 199.12280273 C282.71980267 210.82085819 288.26892681 222.63840218 293.23095703 234.87084961 C293.46088348 235.43730194 293.69080994 236.00375427 293.92770386 236.58737183 C295.38199964 240.18808817 296.8150168 243.79350414 298.16845703 247.43334961 C298.29290618 247.71423871 298.29290618 247.71423871 298.92269433 249.1357078 C301.97690541 256.77027039 301.61122816 264.59876163 301.60324097 272.67567444 C301.61243479 274.33118724 301.622902 275.98669337 301.63452733 277.64219087 C301.66251323 282.17773166 301.67184376 286.7131455 301.67790341 291.24876153 C301.68759418 296.14705849 301.7143003 301.04526905 301.73846436 305.94351196 C301.79290768 317.77091888 301.81863257 329.59832341 301.84131545 341.42582694 C301.85267908 347.00886458 301.86719897 352.59189387 301.88141251 358.17492485 C301.92763502 376.7602277 301.96699343 395.34551939 301.98478508 413.93087101 C301.98595619 415.13189776 301.98712975 416.3329245 301.98830575 417.53395125 C301.98888766 418.12949825 301.98946957 418.72504525 301.99006911 419.33863913 C301.99302344 422.3554795 301.99601032 425.37231984 301.99902344 428.38916016 C301.99961313 428.98784118 302.00020282 429.5865222 302.00081038 430.20334508 C302.02017599 449.56298352 302.08283192 468.92214478 302.17132569 488.28158234 C302.26493394 508.79783324 302.31768522 529.31370606 302.32544148 549.83020395 C302.33066163 560.99400406 302.35345829 572.15712581 302.42318344 583.32072639 C302.48248017 592.83927899 302.50297606 602.35697676 302.47551177 611.87568975 C302.46265695 616.71874085 302.46642462 621.56004718 302.52009201 626.40285683 C302.76833973 650.14189453 300.1871956 669.78392817 290.88787523 691.72020905 C289.66178174 694.63988844 288.49726001 697.58419588 287.32415581 700.52546787 C274.90758447 731.52142726 259.41819816 761.49589543 241.16845703 789.43334961 C240.47690425 790.50486964 239.7854819 791.57647387 239.09423828 792.64819336 C229.74002446 806.94425599 219.50823997 820.55813478 208.59960938 833.69799805 C207.33145643 835.2357038 206.08245698 836.78558667 204.84423828 838.34741211 C198.92911365 845.76045185 192.49024245 852.61892155 185.97802734 859.50610352 C184.19046227 861.40991338 182.42243172 863.32990182 180.66064453 865.25756836 C175.64357025 870.74114632 170.70174792 876.10352386 164.98095703 880.87084961 C162.99017109 882.58704438 161.18456404 884.42075528 159.35595703 886.30834961 C155.97382624 889.73645111 152.39779134 892.79832599 148.63989258 895.80712891 C146.05299672 897.88196681 143.51017214 899.98893251 141.02001953 902.17944336 C132.23051881 909.90847878 123.02164461 916.90971252 113.52050781 923.74145508 C111.31243822 925.32978 109.11311693 926.92956842 106.91455078 928.53100586 C52.6519384 967.75668142 -9.79191649 994.80083369 -73.83154297 1013.43334961 C-74.38183995 1013.61219767 -74.93213692 1013.79104573 -75.49910957 1013.97531343 C-78.99006549 1014.66085674 -82.43702549 1014.5847598 -85.98665905 1014.58712387 C-86.81980107 1014.59157328 -87.65294308 1014.59602268 -88.51133183 1014.60060692 C-91.32177985 1014.614354 -94.13219956 1014.62098398 -96.94267273 1014.62762451 C-98.97105678 1014.63593302 -100.99943921 1014.64464684 -103.02781993 1014.65373254 C-108.03073273 1014.6749075 -113.03364541 1014.69130554 -118.03658231 1014.70558088 C-122.19835142 1014.71759824 -126.36010742 1014.73191541 -130.52186394 1014.74768448 C-130.82210859 1014.74882013 -130.82210859 1014.74882013 -132.34152852 1014.75456723 C-132.94589806 1014.75685377 -133.5502676 1014.75914032 -134.17295136 1014.76149616 C-178.98600585 1014.93101142 -223.79946677 1015.01512407 -268.61277811 1015.08209316 C-275.29173861 1015.09210292 -281.97069851 1015.10249838 -288.6496582 1015.11303711 C-289.0186277 1015.11361484 -289.0186277 1015.11361484 -290.88583697 1015.11653851 C-314.72659 1015.15413666 -338.56702169 1015.23001333 -362.40760073 1015.32715211 C-386.95838197 1015.42700033 -411.50898945 1015.49018224 -436.05997441 1015.50750651 C-439.54354681 1015.50997511 -443.02711879 1015.51283956 -446.51069069 1015.51593781 C-447.19614928 1015.51653296 -447.88160788 1015.51712811 -448.58783795 1015.5177413 C-459.52945834 1015.52826027 -470.4705974 1015.57609953 -481.41203156 1015.63846319 C-492.46433257 1015.70059383 -503.51613313 1015.72094215 -514.56859531 1015.70137796 C-520.53464414 1015.69189619 -526.49917537 1015.70018364 -532.46499634 1015.75806808 C-561.59732101 1016.02625113 -587.15303771 1013.13577135 -614.89909758 1004.0576809 C-618.59727453 1002.86287995 -622.32713821 1001.77622743 -626.05394381 1000.67454886 C-629.81718081 999.54351769 -633.54260492 998.30426169 -637.26904297 997.05834961 C-638.06888611 996.79465576 -638.86872925 996.53096191 -639.69281006 996.25927734 C-709.99972061 973.06362306 -778.35584678 940.28830969 -838.83154297 897.43334961 C-840.00599778 896.60779413 -841.18047676 895.78227302 -842.35498047 894.95678711 C-848.58151152 890.56107588 -854.72673312 886.05889862 -860.83154297 881.49584961 C-861.42322266 881.05442627 -862.01490234 880.61300293 -862.62451172 880.15820312 C-863.87199531 879.22042928 -865.10063148 878.25717085 -866.31140327 877.27245426 C-868.3058691 875.81696694 -870.08208779 874.76389364 -872.25425529 873.64945889 C-877.36509993 870.75919734 -881.8044243 867.63788588 -883.65990305 861.84892583 C-884.94549979 854.44454925 -884.82519859 846.93015657 -884.74964261 839.43959963 C-884.73019522 836.00255008 -884.79150619 832.5667482 -884.84182739 829.13014221 C-884.92696955 822.40736783 -884.93608261 815.68658711 -884.91620053 808.96338213 C-884.90094002 803.49163232 -884.91094089 798.02047743 -884.93859482 792.54878044 C-884.94247242 791.7678427 -884.94635002 790.98690495 -884.95034512 790.18230243 C-884.95825582 788.59536581 -884.96618905 787.00842931 -884.97414456 785.42149293 C-885.04502103 770.55571541 -885.02562143 755.69106579 -884.97823475 740.82526427 C-884.93775553 727.2649428 -885.00845961 713.70790825 -885.13249601 700.14817906 C-885.25919744 686.18949869 -885.31094813 672.23235834 -885.28269756 658.27310508 C-885.26812739 650.45014857 -885.28193496 642.62987139 -885.37405777 634.80737495 C-885.45169255 628.14228519 -885.45745791 621.48161134 -885.37475528 614.81651128 C-885.33451427 611.42286172 -885.32444073 608.03717044 -885.40406799 604.64403534 C-885.66214258 592.83174726 -885.52229057 582.22066936 -877.21448996 573.08820454 C-872.75733859 568.46995049 -867.83842272 564.43971045 -862.83154297 560.43334961 C-861.34450628 559.16341624 -859.86466494 557.88498227 -858.39401436 556.59610844 C-857.7836474 556.06278591 -857.17328043 555.52946339 -856.5444175 554.97997957 C-853.69531895 552.40740282 -851.01336992 549.67808361 -848.33154297 546.93334961 C-844.34633277 542.89798231 -840.31635148 539.03911953 -835.98779297 535.37084961 C-832.38068942 532.12968411 -829.01975402 528.64072582 -825.61108398 525.19335938 C-822.17117776 521.72948515 -818.64600447 518.46210027 -814.92138672 515.30444336 C-812.11243763 512.78951511 -809.4804568 510.11499638 -806.83154297 507.43334961 C-803.60755915 504.16952664 -800.39636476 500.96504842 -796.89404297 497.99584961 C-793.17196604 494.83324979 -789.76288225 491.40364265 -786.33154297 487.93334961 C-782.3437774 483.90036487 -778.31659389 480.03932496 -773.98779297 476.37084961 C-770.38530086 473.13382772 -767.02843189 469.64965096 -763.62426758 466.20654297 C-760.1140401 462.6717075 -756.5410717 459.28420996 -752.71044922 456.09350586 C-750.83154297 454.43334961 -750.83154297 454.43334961 -749.76800537 452.99168396 C-747.52384953 450.19149867 -745.78123621 448.65177621 -742.22935486 447.83485413 C-738.98412447 447.57246264 -735.78671277 447.49699626 -732.53076172 447.49584961 C-731.32777004 447.48162084 -730.12479173 447.46621916 -728.92182922 447.44970703 C-726.40575429 447.42289432 -723.89093313 447.41963988 -721.37475586 447.43139648 C-718.17180909 447.44316755 -714.974951 447.38212396 -711.77318096 447.30116272 C-709.28907226 447.24907636 -706.80639673 447.24368158 -704.3218174 447.25094604 C-702.57518206 447.24597601 -700.82884903 447.19680109 -699.08293152 447.14648438 C-694.16889068 447.2310786 -691.05187088 447.44140027 -687.15933228 450.60546875 C-684.82556905 453.04658517 -682.82732283 455.71064821 -680.83154297 458.43334961 C-679.73999718 459.71503958 -678.63838486 460.98836199 -677.51904297 462.24584961 C-676.96345703 462.88264648 -676.40787109 463.51944336 -675.83544922 464.17553711 C-669.05717796 471.81265365 -662.09804222 479.24804218 -654.81982422 486.40991211 C-653.01171703 488.24998976 -651.35701317 490.14028536 -649.70654297 492.12084961 C-645.64333781 496.87079366 -641.02239099 501.02516189 -636.42480469 505.24658203 C-632.67180831 508.69407923 -629.01345416 512.20608372 -625.44091797 515.84082031 C-622.38217113 518.86755053 -619.09139678 521.62739949 -615.83154297 524.43334961 C-614.73714744 525.3909457 -613.64345635 526.34934718 -612.55029297 527.30834961 C-553.41025573 579.0836885 -484.84290345 618.54784991 -300.83154297 650.43334961 C-276.87840712 648.75739926 -252.41350238 643.55790603 -229.83154297 635.43334961 C-228.94724609 635.12059082 -228.06294922 634.80783203 -227.15185547 634.4855957 C-201.22227807 625.20643426 -177.84536001 611.85822275 -157.19775391 593.63208008 C-155.97760295 592.56150445 -154.73783049 591.51338744 -153.49560547 590.46850586 C-148.7802765 586.48486587 -144.7943285 582.15600948 -140.83154297 577.43334961 C-140.09291016 576.60577148 -139.35427734 575.77819336 -138.59326172 574.92553711 C-115.42842256 548.66892023 -102.86540286 515.47963921 -96.83154297 481.43334961 C-96.71520508 480.78317871 -96.59886719 480.13300781 -96.47900391 479.46313477 C-91.53964369 448.99227325 -108.7585503 410.80465084 -126.01904297 386.68334961 C-127.59030363 384.57316007 -129.20485266 382.50090562 -130.83154297 380.43334961 C-131.51087891 379.53358398 -132.19021484 378.63381836 -132.89013672 377.70678711 C-157.29648331 346.42606312 -192.56060454 324.93009964 -229.08154297 310.55834961 C-229.35630966 310.44970078 -229.35630966 310.44970078 -230.74679565 309.89987183 C-240.94124842 305.89943467 -251.36863266 302.65223984 -261.83154297 299.43334961 C-262.22980891 292.67095644 -262.52955293 285.91141766 -262.71234989 279.14016724 C-262.80022599 275.9930564 -262.91866082 272.85408668 -263.11401367 269.71166992 C-264.43907935 247.82348881 -264.43907935 247.82348881 -258.18481445 240.32617188 C-254.70043201 236.81588529 -250.9242127 233.83440395 -246.89825439 230.97213745 C-243.87934801 228.72438463 -241.34143302 226.10476283 -238.76904297 223.37084961 C-235.95102202 220.49701758 -233.08929443 217.72669329 -230.01904297 215.12084961 C-226.07752772 211.76446652 -222.47016535 208.11016774 -218.83154297 204.43334961 C-214.68646688 200.24489797 -210.52237928 196.20664236 -206.01904297 192.40209961 C-202.83333546 189.53496285 -199.84569539 186.47903082 -196.83154297 183.43334961 C-192.68645966 179.24490769 -188.52237938 175.20664244 -184.01904297 171.40209961 C-180.83333546 168.53496285 -177.84569539 165.47903082 -174.83154297 162.43334961 C-170.68645966 158.24490769 -166.52237938 154.20664244 -162.01904297 150.40209961 C-158.1785766 146.94567988 -154.59999675 143.22032366 -150.96655273 139.54882812 C-147.41696479 135.97636728 -143.79996418 132.5873056 -139.95263672 129.33569336 C-136.96015076 126.65182474 -134.15721038 123.79100872 -131.33154297 120.93334961 C-127.94147916 117.5049041 -124.5796034 114.11074262 -120.89404297 110.99584961 C-116.98884318 107.68762303 -113.42873371 104.0682122 -109.83154297 100.43334961 C-105.68646206 96.24490445 -101.52237935 92.20664241 -97.01904297 88.40209961 C-93.83333546 85.53496285 -90.84569539 82.47903082 -87.83154297 79.43334961 C-83.68645966 75.24490769 -79.52237938 71.20664244 -75.01904297 67.40209961 C-71.83333546 64.53496285 -68.84569539 61.47903082 -65.83154297 58.43334961 C-61.68645966 54.24490769 -57.52237938 50.20664244 -53.01904297 46.40209961 C-49.83333546 43.53496285 -46.84569539 40.47903082 -43.83154297 37.43334961 C-39.68645966 33.24490769 -35.52237938 29.20664244 -31.01904297 25.40209961 C-27.18702272 21.95328139 -23.61592884 18.23666796 -19.99072266 14.57299805 C-16.21191858 10.76958971 -12.38428761 7.12566465 -8.28466797 3.66772461 C-4.15861477 0.1627977 -4.15861477 0.1627977 0 0 Z " fill="#B7231F" transform="translate(882.83154296875,715.566650390625)"/>
<path d="M0 0 C0.50578331 -0.02061745 0.50578331 -0.02061745 3.06535339 -0.12495422 C4.16929947 -0.1559874 5.27324554 -0.18702057 6.41064453 -0.21899414 C7.55362503 -0.25216232 8.69660553 -0.28533051 9.8742218 -0.31950378 C13.59701368 -0.41418414 17.31969208 -0.46642486 21.04345703 -0.50415039 C21.35818026 -0.50758831 21.35818026 -0.50758831 22.95087051 -0.52498627 C42.65553207 -0.7051247 58.56986466 0.9103161 75.46484375 11.74536133 C78.8441922 13.85524169 82.34634917 15.52821495 85.95117188 17.21264648 C122.72167503 34.473607 156.76167686 58.682329 187.16845703 85.43334961 C187.4062085 85.64145264 187.4062085 85.64145264 188.609375 86.69458008 C195.46562746 92.72837598 201.97876514 99.1220691 208.46188354 105.55154419 C209.37337301 106.4550124 210.28633923 107.35699381 211.20095825 108.2572937 C216.913925 113.89017768 222.192808 119.70904966 227.20092773 125.9777832 C228.76439623 127.92906327 230.35030129 129.83765862 231.99658203 131.71850586 C249.10938344 151.29469623 263.05490533 173.48135691 275.16845703 196.43334961 C275.40298584 196.87710938 275.40298584 196.87710938 276.58984375 199.12280273 C282.71980267 210.82085819 288.26892681 222.63840218 293.23095703 234.87084961 C293.46088348 235.43730194 293.69080994 236.00375427 293.92770386 236.58737183 C295.38199964 240.18808817 296.8150168 243.79350414 298.16845703 247.43334961 C298.29290618 247.71423871 298.29290618 247.71423871 298.92269433 249.1357078 C301.97690541 256.77027039 301.61122816 264.59876163 301.60324097 272.67567444 C301.61243479 274.33118724 301.622902 275.98669337 301.63452733 277.64219087 C301.66251323 282.17773166 301.67184376 286.7131455 301.67790341 291.24876153 C301.68759418 296.14705849 301.7143003 301.04526905 301.73846436 305.94351196 C301.79290768 317.77091888 301.81863257 329.59832341 301.84131545 341.42582694 C301.85267908 347.00886458 301.86719897 352.59189387 301.88141251 358.17492485 C301.92763502 376.7602277 301.96699343 395.34551939 301.98478508 413.93087101 C301.98595619 415.13189776 301.98712975 416.3329245 301.98830575 417.53395125 C301.98888766 418.12949825 301.98946957 418.72504525 301.99006911 419.33863913 C301.99302344 422.3554795 301.99601032 425.37231984 301.99902344 428.38916016 C301.99961313 428.98784118 302.00020282 429.5865222 302.00081038 430.20334508 C302.02017599 449.56298352 302.08283192 468.92214478 302.17132569 488.28158234 C302.26493394 508.79783324 302.31768522 529.31370606 302.32544148 549.83020395 C302.33066163 560.99400406 302.35345829 572.15712581 302.42318344 583.32072639 C302.48248017 592.83927899 302.50297606 602.35697676 302.47551177 611.87568975 C302.46265695 616.71874085 302.46642462 621.56004718 302.52009201 626.40285683 C302.76833973 650.14189453 300.1871956 669.78392817 290.88787523 691.72020905 C289.66178174 694.63988844 288.49726001 697.58419588 287.32415581 700.52546787 C274.90758447 731.52142726 259.41819816 761.49589543 241.16845703 789.43334961 C240.47690425 790.50486964 239.7854819 791.57647387 239.09423828 792.64819336 C229.74002446 806.94425599 219.50823997 820.55813478 208.59960938 833.69799805 C207.33145643 835.2357038 206.08245698 836.78558667 204.84423828 838.34741211 C198.92911365 845.76045185 192.49024245 852.61892155 185.97802734 859.50610352 C184.19046227 861.40991338 182.42243172 863.32990182 180.66064453 865.25756836 C175.64357025 870.74114632 170.70174792 876.10352386 164.98095703 880.87084961 C162.99017109 882.58704438 161.18456404 884.42075528 159.35595703 886.30834961 C155.97382624 889.73645111 152.39779134 892.79832599 148.63989258 895.80712891 C146.05299672 897.88196681 143.51017214 899.98893251 141.02001953 902.17944336 C132.23051881 909.90847878 123.02164461 916.90971252 113.52050781 923.74145508 C111.31243822 925.32978 109.11311693 926.92956842 106.91455078 928.53100586 C60.92047553 961.77947279 -22.60923744 1014.58883227 -81.90011215 1014.55639744 C-82.30294304 1014.55739296 -82.30294304 1014.55739296 -84.34151149 1014.56243092 C-85.22088728 1014.55951808 -86.10026308 1014.55660524 -87.00628662 1014.55360413 C-87.94483781 1014.55445855 -88.883389 1014.55531298 -89.85038114 1014.55619329 C-93.00264967 1014.55784348 -96.15486526 1014.55233422 -99.30712891 1014.546875 C-101.56384785 1014.546593 -103.82056688 1014.54675111 -106.07728577 1014.5473175 C-110.93963929 1014.54784182 -115.80197938 1014.54470465 -120.66432953 1014.53907967 C-127.69446788 1014.53095218 -134.72459975 1014.52834816 -141.75474229 1014.52709167 C-153.16071729 1014.52490312 -164.56668514 1014.51824836 -175.97265625 1014.50878906 C-187.05240849 1014.49960987 -198.13215879 1014.49253151 -209.21191406 1014.48828125 C-209.89488516 1014.48801853 -210.57785625 1014.4877558 -211.28152344 1014.48748512 C-214.7077932 1014.48618008 -218.13406298 1014.48491637 -221.56033278 1014.48367321 C-249.98407471 1014.47330673 -278.40780788 1014.45569374 -306.83154297 1014.43334961 C-306.83154297 1014.10334961 -306.83154297 1013.77334961 -306.83154297 1013.43334961 C-306.3633313 1013.42605835 -306.3633313 1013.42605835 -303.99389648 1013.38916016 C-223.93313758 1012.05776785 -143.98199154 1001.70256892 13.16845703 941.43334961 C14.126875 940.95542969 15.08529297 940.47750977 16.07275391 939.98510742 C49.87841035 923.03346237 82.35757207 901.93527524 111.16845703 877.43334961 C111.70245117 876.98282227 112.23644531 876.53229492 112.78662109 876.06811523 C120.5135819 869.54699564 128.09139986 862.88699508 135.48925781 855.99487305 C137.39658036 854.22121282 139.31207995 852.45656073 141.22705078 850.69116211 C142.64538604 849.37645322 144.06335758 848.06135185 145.48095703 846.74584961 C146.1388623 846.14023193 146.79676758 845.53461426 147.47460938 844.91064453 C151.39468558 841.25557222 154.99447595 837.45016191 158.48266602 833.38183594 C161.08132815 830.3782266 163.81904322 827.50988687 166.54345703 824.62084961 C172.02360764 818.75143278 177.20088093 812.74576 182.16845703 806.43334961 C182.67989258 805.78914063 183.19132812 805.14493164 183.71826172 804.48120117 C202.73016466 780.51062534 219.39499525 755.2310091 234.16845703 728.43334961 C234.61753418 727.62704102 235.06661133 726.82073242 235.52929688 725.98999023 C268.01628016 667.34511854 286.90620434 600.60242134 296.85595703 516.49584961 C296.91689545 515.89087646 296.97783386 515.28590332 297.0406189 514.66259766 C298.99157812 495.02211365 299.37588647 475.34638386 299.35595703 455.62084961 C299.35535278 454.50606232 299.35474854 453.39127502 299.35412598 452.2427063 C299.32726916 433.89868147 298.89439386 415.6979082 297.16845703 397.43334961 C297.10764954 396.77385315 297.04684204 396.11435669 296.98419189 395.43487549 C289.86849262 318.7647567 266.52146153 243.38439394 196.16845703 148.43334961 C195.76643066 147.97202637 195.3644043 147.51070312 194.95019531 147.03540039 C188.90982796 140.15809966 182.49273953 133.63620621 176.04925537 127.13891602 C175.14621543 126.22785278 174.24466215 125.31531294 173.3447876 124.40112305 C167.71045085 118.68668476 161.89006984 113.4058405 155.61962891 108.39648438 C153.68268249 106.84519093 151.78665889 105.27257648 149.91845703 103.64038086 C134.76336588 90.41441383 118.19807563 79.0915246 101.16845703 68.43334961 C100.77650146 68.18746094 100.77650146 68.18746094 98.79296875 66.94311523 C74.31334642 51.68600092 48.70297927 38.70594664 22.16845703 27.43334961 C21.68376953 27.92963867 21.19908203 28.42592773 20.69970703 28.93725586 C17.41052893 32.27071136 14.11924523 35.5320873 10.54345703 38.55834961 C6.54698066 41.98615741 2.86913574 45.69368561 -0.83154297 49.43334961 C-4.97661184 53.62181098 -9.14070675 57.66005694 -13.64404297 61.46459961 C-16.82975048 64.33173637 -19.81739054 67.38766839 -22.83154297 70.43334961 C-26.97662628 74.62179153 -31.14070656 78.66005678 -35.64404297 82.46459961 C-38.82975048 85.33173637 -41.81739054 88.38766839 -44.83154297 91.43334961 C-48.97662628 95.62179153 -53.14070656 99.66005678 -57.64404297 103.46459961 C-61.48450933 106.92101934 -65.06308919 110.64637556 -68.6965332 114.31787109 C-72.24612115 117.89033194 -75.86312176 121.27939362 -79.71044922 124.53100586 C-82.70293517 127.21487448 -85.50587556 130.0756905 -88.33154297 132.93334961 C-91.72160678 136.36179512 -95.08348254 139.7559566 -98.76904297 142.87084961 C-102.67424276 146.17907619 -106.23435223 149.79848702 -109.83154297 153.43334961 C-113.97662387 157.62179477 -118.14070659 161.66005681 -122.64404297 165.46459961 C-125.82975048 168.33173637 -128.81739054 171.38766839 -131.83154297 174.43334961 C-135.97662628 178.62179153 -140.14070656 182.66005678 -144.64404297 186.46459961 C-147.82975048 189.33173637 -150.81739054 192.38766839 -153.83154297 195.43334961 C-157.97662628 199.62179153 -162.14070656 203.66005678 -166.64404297 207.46459961 C-169.82975048 210.33173637 -172.81739054 213.38766839 -175.83154297 216.43334961 C-179.97662628 220.62179153 -184.14070656 224.66005678 -188.64404297 228.46459961 C-191.82975048 231.33173637 -194.81739054 234.38766839 -197.83154297 237.43334961 C-201.97530429 241.62045571 -206.13745845 245.6582156 -210.64013672 249.46069336 C-214.46648837 252.90509191 -218.04479189 256.60742822 -221.64599609 260.28491211 C-225.5323527 264.22861563 -229.5712031 267.89693626 -233.83154297 271.43334961 C-230.7838138 273.05335002 -227.73352556 274.20392228 -224.45654297 275.28100586 C-223.92762451 275.45764771 -223.92762451 275.45764771 -221.25097656 276.3515625 C-220.69335632 276.53768097 -220.13573608 276.72379944 -219.56121826 276.91555786 C-207.28578949 281.03386264 -195.50871966 285.81794105 -183.83154297 291.43334961 C-183.13416016 291.76157715 -182.43677734 292.08980469 -181.71826172 292.42797852 C-166.12514762 299.77358748 -151.25392871 308.59149047 -137.83154297 319.43334961 C-137.32880859 319.83457031 -136.82607422 320.23579102 -136.30810547 320.64916992 C-117.91728316 335.41443833 -102.97008815 352.2489702 -90.83154297 372.43334961 C-90.49413086 372.98619629 -90.15671875 373.53904297 -89.80908203 374.10864258 C-79.54628636 391.17492084 -73.25870873 410.89058071 -69.83154297 430.43334961 C-69.72261719 431.03566406 -69.61369141 431.63797852 -69.50146484 432.25854492 C-67.26819473 444.8083993 -66.59321208 457.3965749 -66.58154297 470.12084961 C-66.5812056 470.45636337 -66.5812056 470.45636337 -66.57949829 472.15426636 C-66.64296782 512.34827308 -76.3991358 553.2679504 -99.83154297 586.43334961 C-100.20279297 586.96009277 -100.57404297 587.48683594 -100.95654297 588.02954102 C-105.52560631 594.44487083 -110.4326165 600.40311091 -115.77685547 606.19116211 C-117.54844054 608.12441274 -119.22936638 610.09624295 -120.89404297 612.12084961 C-124.20320888 615.9845244 -127.92005394 619.19222584 -131.83154297 622.43334961 C-132.32203125 622.85213379 -132.81251953 623.27091797 -133.31787109 623.70239258 C-195.21061911 676.45274009 -278.74932632 683.43900074 -356.51159668 677.62017822 C-410.84132845 673.24492674 -464.18755737 660.00495042 -513.83154297 637.43334961 C-514.74355469 637.02407227 -515.65556641 636.61479492 -516.59521484 636.19311523 C-549.61841745 621.30029837 -580.14618291 601.44497284 -608.83154297 579.43334961 C-609.43740234 578.96928711 -610.04326172 578.50522461 -610.66748047 578.02709961 C-623.00342697 568.5461975 -634.75087018 558.45223402 -646.16357422 547.88256836 C-648.36535437 545.84842462 -650.61430838 543.88014121 -652.89404297 541.93334961 C-656.70994853 538.63310696 -660.22715008 535.06927435 -663.76538086 531.47802734 C-666.36284892 528.85537172 -668.99979357 526.36918056 -671.83154297 523.99584961 C-675.73990011 520.66061204 -679.11531557 516.93792314 -682.54541016 513.12597656 C-685.78832227 509.53337155 -689.13353015 506.07901165 -692.58154297 502.68334961 C-696.21709908 499.09333283 -699.68460482 495.43252304 -703.00732422 491.54663086 C-705.32230386 488.86482361 -707.69794806 486.24164171 -710.08154297 483.62084961 C-710.50636963 483.15227539 -710.93119629 482.68370117 -711.36889648 482.20092773 C-713.47198832 479.89007668 -715.59667212 477.61742794 -717.83154297 475.43334961 C-718.60498047 476.21838867 -719.37841797 477.00342773 -720.17529297 477.81225586 C-729.62594933 487.36035737 -729.62594933 487.36035737 -733.76904297 490.87084961 C-737.4911199 494.03344942 -740.90020369 497.46305657 -744.33154297 500.93334961 C-748.31930853 504.96633435 -752.34649205 508.82737426 -756.67529297 512.49584961 C-760.28239651 515.73701511 -763.64333192 519.2259734 -767.05200195 522.67333984 C-770.49190818 526.13721407 -774.01708147 529.40459895 -777.74169922 532.56225586 C-780.55064831 535.07718411 -783.18262914 537.75170283 -785.83154297 540.43334961 C-789.05552678 543.69717258 -792.26672118 546.9016508 -795.76904297 549.87084961 C-799.4911199 553.03344942 -802.90020369 556.46305657 -806.33154297 559.93334961 C-810.31930853 563.96633435 -814.34649205 567.82737426 -818.67529297 571.49584961 C-822.28239651 574.73701511 -825.64333192 578.2259734 -829.05200195 581.67333984 C-832.49190818 585.13721407 -836.01708147 588.40459895 -839.74169922 591.56225586 C-842.55064831 594.07718411 -845.18262914 596.75170283 -847.83154297 599.43334961 C-851.6395362 603.28839867 -855.50452834 606.9514489 -859.64013672 610.45678711 C-863.22288002 613.68828107 -866.56906593 617.1637331 -869.91333008 620.64013672 C-872.78968391 623.58071678 -875.7286885 626.18534283 -879.04052734 628.63232422 C-879.75285522 629.16047226 -880.46518311 629.6886203 -881.19909668 630.23277283 C-881.73780396 630.62896317 -882.27651123 631.0251535 -882.83154297 631.43334961 C-886.45560062 582.92028394 -886.45560062 582.92028394 -878.65966797 572.83959961 C-874.86373432 568.46885054 -870.2297256 565.10535301 -865.34130859 562.03881836 C-858.93522039 557.94091602 -853.6225555 552.34847231 -848.33154297 546.93334961 C-844.34633277 542.89798231 -840.31635148 539.03911953 -835.98779297 535.37084961 C-832.38068942 532.12968411 -829.01975402 528.64072582 -825.61108398 525.19335938 C-822.17117776 521.72948515 -818.64600447 518.46210027 -814.92138672 515.30444336 C-812.11243763 512.78951511 -809.4804568 510.11499638 -806.83154297 507.43334961 C-803.60755915 504.16952664 -800.39636476 500.96504842 -796.89404297 497.99584961 C-793.17196604 494.83324979 -789.76288225 491.40364265 -786.33154297 487.93334961 C-782.3437774 483.90036487 -778.31659389 480.03932496 -773.98779297 476.37084961 C-770.38530086 473.13382772 -767.02843189 469.64965096 -763.62426758 466.20654297 C-760.1140401 462.6717075 -756.5410717 459.28420996 -752.71044922 456.09350586 C-750.83154297 454.43334961 -750.83154297 454.43334961 -749.76800537 452.99168396 C-747.52384953 450.19149867 -745.78123621 448.65177621 -742.22935486 447.83485413 C-738.98412447 447.57246264 -735.78671277 447.49699626 -732.53076172 447.49584961 C-731.32777004 447.48162084 -730.12479173 447.46621916 -728.92182922 447.44970703 C-726.40575429 447.42289432 -723.89093313 447.41963988 -721.37475586 447.43139648 C-718.17180909 447.44316755 -714.974951 447.38212396 -711.77318096 447.30116272 C-709.28907226 447.24907636 -706.80639673 447.24368158 -704.3218174 447.25094604 C-702.57518206 447.24597601 -700.82884903 447.19680109 -699.08293152 447.14648438 C-694.16889068 447.2310786 -691.05187088 447.44140027 -687.15933228 450.60546875 C-684.82556905 453.04658517 -682.82732283 455.71064821 -680.83154297 458.43334961 C-679.73999718 459.71503958 -678.63838486 460.98836199 -677.51904297 462.24584961 C-676.96345703 462.88264648 -676.40787109 463.51944336 -675.83544922 464.17553711 C-669.05717796 471.81265365 -662.09804222 479.24804218 -654.81982422 486.40991211 C-653.01171703 488.24998976 -651.35701317 490.14028536 -649.70654297 492.12084961 C-645.64333781 496.87079366 -641.02239099 501.02516189 -636.42480469 505.24658203 C-632.67180831 508.69407923 -629.01345416 512.20608372 -625.44091797 515.84082031 C-622.38217113 518.86755053 -619.09139678 521.62739949 -615.83154297 524.43334961 C-614.73714744 525.3909457 -613.64345635 526.34934718 -612.55029297 527.30834961 C-553.41025573 579.0836885 -484.84290345 618.54784991 -300.83154297 650.43334961 C-276.87840712 648.75739926 -252.41350238 643.55790603 -229.83154297 635.43334961 C-228.94724609 635.12059082 -228.06294922 634.80783203 -227.15185547 634.4855957 C-201.22227807 625.20643426 -177.84536001 611.85822275 -157.19775391 593.63208008 C-155.97760295 592.56150445 -154.73783049 591.51338744 -153.49560547 590.46850586 C-148.7802765 586.48486587 -144.7943285 582.15600948 -140.83154297 577.43334961 C-140.09291016 576.60577148 -139.35427734 575.77819336 -138.59326172 574.92553711 C-115.42842256 548.66892023 -102.86540286 515.47963921 -96.83154297 481.43334961 C-96.71520508 480.78317871 -96.59886719 480.13300781 -96.47900391 479.46313477 C-91.53964369 448.99227325 -108.7585503 410.80465084 -126.01904297 386.68334961 C-127.59030363 384.57316007 -129.20485266 382.50090562 -130.83154297 380.43334961 C-131.51087891 379.53358398 -132.19021484 378.63381836 -132.89013672 377.70678711 C-157.29648331 346.42606312 -192.56060454 324.93009964 -229.08154297 310.55834961 C-229.35630966 310.44970078 -229.35630966 310.44970078 -230.74679565 309.89987183 C-240.94124842 305.89943467 -251.36863266 302.65223984 -261.83154297 299.43334961 C-262.22980891 292.67095644 -262.52955293 285.91141766 -262.71234989 279.14016724 C-262.80022599 275.9930564 -262.91866082 272.85408668 -263.11401367 269.71166992 C-264.43907935 247.82348881 -264.43907935 247.82348881 -258.18481445 240.32617188 C-254.70043201 236.81588529 -250.9242127 233.83440395 -246.89825439 230.97213745 C-243.87934801 228.72438463 -241.34143302 226.10476283 -238.76904297 223.37084961 C-235.95102202 220.49701758 -233.08929443 217.72669329 -230.01904297 215.12084961 C-226.07752772 211.76446652 -222.47016535 208.11016774 -218.83154297 204.43334961 C-214.68646688 200.24489797 -210.52237928 196.20664236 -206.01904297 192.40209961 C-202.83333546 189.53496285 -199.84569539 186.47903082 -196.83154297 183.43334961 C-192.68645966 179.24490769 -188.52237938 175.20664244 -184.01904297 171.40209961 C-180.83333546 168.53496285 -177.84569539 165.47903082 -174.83154297 162.43334961 C-170.68645966 158.24490769 -166.52237938 154.20664244 -162.01904297 150.40209961 C-158.1785766 146.94567988 -154.59999675 143.22032366 -150.96655273 139.54882812 C-147.41696479 135.97636728 -143.79996418 132.5873056 -139.95263672 129.33569336 C-136.96015076 126.65182474 -134.15721038 123.79100872 -131.33154297 120.93334961 C-127.94147916 117.5049041 -124.5796034 114.11074262 -120.89404297 110.99584961 C-116.98884318 107.68762303 -113.42873371 104.0682122 -109.83154297 100.43334961 C-105.68646206 96.24490445 -101.52237935 92.20664241 -97.01904297 88.40209961 C-93.83333546 85.53496285 -90.84569539 82.47903082 -87.83154297 79.43334961 C-83.68645966 75.24490769 -79.52237938 71.20664244 -75.01904297 67.40209961 C-71.83333546 64.53496285 -68.84569539 61.47903082 -65.83154297 58.43334961 C-61.68645966 54.24490769 -57.52237938 50.20664244 -53.01904297 46.40209961 C-49.83333546 43.53496285 -46.84569539 40.47903082 -43.83154297 37.43334961 C-39.68645966 33.24490769 -35.52237938 29.20664244 -31.01904297 25.40209961 C-27.18702272 21.95328139 -23.61592884 18.23666796 -19.99072266 14.57299805 C-16.21191858 10.76958971 -12.38428761 7.12566465 -8.28466797 3.66772461 C-4.15861477 0.1627977 -4.15861477 0.1627977 0 0 Z " fill="#29271F" transform="translate(882.83154296875,715.566650390625)"/>
<path d="M0 0 C390.39 0 780.78 0 1183 0 C1183 101.97 1183 203.94 1183 309 C1168.22222222 323.77777778 1168.22222222 323.77777778 1163.1875 328.03125 C1160.00179249 330.89838676 1157.01415242 333.95431879 1154 337 C1149.85491669 341.18844192 1145.69083641 345.22670717 1141.1875 349.03125 C1138.00179249 351.89838676 1135.01415242 354.95431879 1132 358 C1127.85491669 362.18844192 1123.69083641 366.22670717 1119.1875 370.03125 C1116.00179249 372.89838676 1113.01415242 375.95431879 1110 379 C1105.85491669 383.18844192 1101.69083641 387.22670717 1097.1875 391.03125 C1094.00179232 393.89838692 1091.01415455 396.95432076 1088 400 C1080.71895711 407.35711491 1080.71895711 407.35711491 1077.0625 410.4375 C1072.97378849 413.89038596 1069.26265302 417.70077198 1065.5 421.5 C1061.17671345 425.8653112 1056.85323169 430.10613961 1052.15234375 434.06640625 C1048.32041767 437.50888068 1044.75498084 441.22666402 1041.13256836 444.88696289 C1037.60521622 448.43702635 1034.01118184 451.8008981 1030.1875 455.03125 C1027.00179249 457.89838676 1024.01415242 460.95431879 1021 464 C1016.85491669 468.18844192 1012.69083641 472.22670717 1008.1875 476.03125 C1005.00179249 478.89838676 1002.01415242 481.95431879 999 485 C994.85491669 489.18844192 990.69083641 493.22670717 986.1875 497.03125 C983.00179249 499.89838676 980.01415242 502.95431879 977 506 C972.85491669 510.18844192 968.69083641 514.22670717 964.1875 518.03125 C961.00179249 520.89838676 958.01415242 523.95431879 955 527 C950.85491669 531.18844192 946.69083641 535.22670717 942.1875 539.03125 C939.00179249 541.89838676 936.01415242 544.95431879 933 548 C928.85491669 552.18844192 924.69083641 556.22670717 920.1875 560.03125 C917.00179249 562.89838676 914.01415242 565.95431879 911 569 C906.85491669 573.18844192 902.69083641 577.22670717 898.1875 581.03125 C895.00179249 583.89838676 892.01415242 586.95431879 889 590 C884.85491669 594.18844192 880.69083641 598.22670717 876.1875 602.03125 C873.00179249 604.89838676 870.01415242 607.95431879 867 611 C862.85491669 615.18844192 858.69083641 619.22670717 854.1875 623.03125 C851.00179249 625.89838676 848.01415242 628.95431879 845 632 C840.85491669 636.18844192 836.69083641 640.22670717 832.1875 644.03125 C829.00179249 646.89838676 826.01415242 649.95431879 823 653 C818.85491669 657.18844192 814.69083641 661.22670717 810.1875 665.03125 C807.00179249 667.89838676 804.01415242 670.95431879 801 674 C796.85491669 678.18844192 792.69083641 682.22670717 788.1875 686.03125 C785.00179249 688.89838676 782.01415242 691.95431879 779 695 C774.85491669 699.18844192 770.69083641 703.22670717 766.1875 707.03125 C762.34703363 710.48766973 758.76845378 714.21302595 755.13500977 717.88452148 C751.58542182 721.45698233 747.96842121 724.84604401 744.12109375 728.09765625 C741.12860779 730.78152487 738.32566741 733.64234089 735.5 736.5 C732.10993619 739.92844551 728.74806043 743.32260699 725.0625 746.4375 C721.15730021 749.74572658 717.59719074 753.36513741 714 757 C709.8549191 761.18844516 705.69083638 765.2267072 701.1875 769.03125 C698.00179249 771.89838676 695.01415242 774.95431879 692 778 C687.85491669 782.18844192 683.69083641 786.22670717 679.1875 790.03125 C676.00179249 792.89838676 673.01415242 795.95431879 670 799 C665.85491669 803.18844192 661.69083641 807.22670717 657.1875 811.03125 C654.00179249 813.89838676 651.01415242 816.95431879 648 820 C643.85491669 824.18844192 639.69083641 828.22670717 635.1875 832.03125 C631.34703363 835.48766973 627.76845378 839.21302595 624.13500977 842.88452148 C620.58542182 846.45698233 616.96842121 849.84604401 613.12109375 853.09765625 C610.12860779 855.78152487 607.32566741 858.64234089 604.5 861.5 C601.10993619 864.92844551 597.74806043 868.32260699 594.0625 871.4375 C590.15730021 874.74572658 586.59719074 878.36513741 583 882 C578.8549191 886.18844516 574.69083638 890.2267072 570.1875 894.03125 C567.00179249 896.89838676 564.01415242 899.95431879 561 903 C556.85491669 907.18844192 552.69083641 911.22670717 548.1875 915.03125 C545.00179249 917.89838676 542.01415242 920.95431879 539 924 C534.85491669 928.18844192 530.69083641 932.22670717 526.1875 936.03125 C522.34703363 939.48766973 518.76845378 943.21302595 515.13500977 946.88452148 C511.58542182 950.45698233 507.96842121 953.84604401 504.12109375 957.09765625 C501.12860779 959.78152487 498.32566741 962.64234089 495.5 965.5 C491.54145349 969.50336447 487.54800425 973.33684802 483.24609375 976.97265625 C479.25182713 980.57791603 475.51282728 984.44988231 471.74633789 988.29077148 C471.16231201 988.88317627 470.57828613 989.47558105 469.9765625 990.0859375 C469.45143066 990.6226709 468.92629883 991.1594043 468.38525391 991.71240234 C465.38891148 994.4975116 462.39150653 994.13802802 458.53341675 994.12025452 C457.86200531 994.12110894 457.19059387 994.12196337 456.49883664 994.12284368 C454.23861825 994.12449688 451.97847332 994.11897972 449.71826172 994.11352539 C448.10222373 994.11324346 446.48618562 994.11340137 444.87014771 994.1139679 C440.47370099 994.11425564 436.07728137 994.10836269 431.68084097 994.10139394 C427.0897291 994.0951565 422.49861667 994.09455629 417.90750122 994.09336853 C409.20940024 994.09025637 400.51131179 994.08204452 391.81321633 994.07201904 C381.9125136 994.06085434 372.01181028 994.05534655 362.11110282 994.05032361 C341.74072826 994.03986182 321.37036483 994.0222646 301 994 C297.84667588 982.86295973 294.86800133 971.70544564 292.15625 960.453125 C291.79465027 958.96324041 291.43274069 957.473431 291.07055664 955.98368835 C290.28889703 952.76658837 289.50889203 949.54909383 288.73022461 946.33126831 C286.79088731 938.3181292 284.84216008 930.3072714 282.89341736 922.29641533 C282.41949667 920.34822285 281.9456719 918.40000704 281.47193909 916.45176888 C277.13317157 898.61095773 272.75949961 880.77883366 268.375 862.94921875 C268.29359048 862.61814393 268.29359048 862.61814393 267.88160896 860.94270468 C264.61474404 847.65720778 261.34573088 834.37223983 258.0751543 821.0876562 C256.83334474 816.04344685 255.59211662 810.9990946 254.35126019 805.9546507 C253.6295557 803.02088339 252.90752464 800.08719739 252.18463135 797.15372276 C250.66267679 790.9767483 249.14911571 784.7978339 247.64372063 778.61680412 C247.06766609 776.27507103 246.47570527 773.93822707 245.87660217 771.60231018 C245.01389312 768.19839763 244.22772829 764.78461333 243.49939346 761.34945488 C243.14039777 759.6605177 242.76787891 757.97443406 242.38671494 756.2903614 C238.38837754 738.10786279 235.14701488 714.94666497 245.19846344 698.05794525 C258.36221277 677.86099359 277.901453 661.43234808 295.60467565 645.34632933 C302.84453717 638.75737438 309.92011551 632.00203131 316.98757374 625.22920692 C325.62365113 616.95525813 334.27988453 608.70521559 343.06349182 600.5877533 C343.68024713 600.01753987 344.29700245 599.44732645 344.93244731 598.85983384 C347.80767528 596.20423943 350.68822503 593.5547486 353.5771637 590.91407776 C354.59833364 589.97483352 355.61945465 589.03553607 356.64051819 588.09617615 C357.08315115 587.69533686 357.5257841 587.29449757 357.98183018 586.88151163 C361.31188648 583.80918516 364.24216102 580.46410298 367.20227808 577.0372358 C369.99050974 573.87752278 372.95715564 570.91157095 375.94482422 567.94165039 C376.60740171 567.27892404 377.26997921 566.61619768 377.95263481 565.93338871 C380.15095181 563.73576056 382.35281112 561.54171766 384.5546875 559.34765625 C386.14062416 557.76364076 387.72633182 556.17939596 389.31182861 554.59494019 C392.71575128 551.19416924 396.12116177 547.79489932 399.52789307 544.39694214 C404.46145782 539.47598951 409.39173054 534.55174886 414.32113719 529.62663138 C422.33147282 521.62334855 430.34367447 513.62193684 438.35742188 505.62207031 C438.59676433 505.38314176 438.59676433 505.38314176 439.80798221 504.1740185 C443.69135506 500.29738946 447.57481878 496.42085146 451.45828629 492.54431725 C454.85309273 489.15556396 458.24786286 485.76677431 461.64257812 482.37792969 C462.12067452 481.90066142 462.59877092 481.42339315 463.09135509 480.9316622 C471.07693512 472.9597913 479.06053378 464.98593893 487.04273415 457.01068401 C491.95704268 452.10084243 496.87311534 447.19278017 501.7915206 442.28704238 C505.5627905 438.52523238 509.3314862 434.76085421 513.09926605 430.99554825 C514.64027361 429.45640743 516.18214276 427.91812867 517.7249527 426.38079453 C519.83736653 424.27564034 521.94662602 422.16737309 524.05517578 420.05834961 C524.66034468 419.45677567 525.26551357 418.85520174 525.88902092 418.23539829 C530.14895908 413.96525917 534.00560833 409.56501905 538 405 C556.48 386.52 574.96 368.04 594 349 C397.98 348.67 201.96 348.34 0 348 C0 233.16 0 118.32 0 0 Z M7 1 C7 106.6 7 212.2 7 321 C227.11 321.33 447.22 321.66 674 322 C633.74 362.26 593.48 402.52 552 444 C549.69 446.64 547.38 449.28 545 452 C542.70421205 454.37766683 540.39840147 456.72904368 538.05517578 459.05834961 C537.72388703 459.38971279 537.72388703 459.38971279 536.04736519 461.06661129 C533.84904819 463.26423944 531.64718888 465.45828234 529.4453125 467.65234375 C527.85937584 469.23635924 526.27366818 470.82060404 524.68817139 472.40505981 C521.28424872 475.80583076 517.87883823 479.20510068 514.47210693 482.60305786 C509.53854218 487.52401049 504.60826946 492.44825114 499.67886281 497.37336862 C491.66852718 505.37665145 483.65632553 513.37806316 475.64257812 521.37792969 C475.40323567 521.61685824 475.40323567 521.61685824 474.19201779 522.8259815 C470.30864494 526.70261054 466.42518122 530.57914854 462.54171371 534.45568275 C459.14690727 537.84443604 455.75213714 541.23322569 452.35742188 544.62207031 C451.87932548 545.09933858 451.40122908 545.57660685 450.90864491 546.0683378 C442.92306488 554.0402087 434.93946622 562.01406107 426.95726585 569.98931599 C422.04295732 574.89915757 417.12688466 579.80721983 412.2084794 584.71295762 C408.4372095 588.47476762 404.6685138 592.23914579 400.90073395 596.00445175 C399.35972639 597.54359257 397.81785724 599.08187133 396.2750473 600.61920547 C394.16263347 602.72435966 392.05337398 604.83262691 389.94482422 606.94165039 C389.33965532 607.54322433 388.73448643 608.14479826 388.11097908 608.76460171 C384.4513311 612.43301318 381.00750157 616.23699468 377.61777389 620.15554905 C375.52579602 622.54064786 373.34103825 624.7818605 371.09608459 627.02416992 C370.65316352 627.46794542 370.21024244 627.91172092 369.75389951 628.36894417 C368.29930415 629.8251599 366.84121413 631.27782065 365.38305664 632.73046875 C364.32763528 633.78560747 363.27243519 634.84096757 362.21743774 635.89653015 C359.37513542 638.73911743 356.52977747 641.57862766 353.68382955 644.41756439 C350.70183946 647.39327049 347.72271242 650.37184021 344.74327087 653.35009766 C339.11083024 658.97943978 333.47584711 664.6062296 327.83992904 670.23209 C321.41952207 676.6412897 315.00198054 683.05335532 308.58466923 689.46565437 C295.39294861 702.64694415 282.19766251 715.82465966 269 729 C274.13817916 750.91506405 279.39318698 772.79936696 284.7734375 794.65625 C284.92380061 795.26713825 285.07416373 795.87802649 285.2290833 796.5074265 C287.11892336 804.18456303 289.01133548 811.86106461 290.90459508 819.53735846 C293.89974379 831.68170188 296.89069388 843.82708024 299.88075757 855.97267652 C300.37826736 857.99349865 300.8758468 860.01430363 301.37342644 862.03510857 C305.65991912 879.44531228 309.92416559 896.86068031 314.15234375 914.28515625 C314.26652775 914.75547712 314.26652775 914.75547712 314.84436798 917.13558578 C316.93665619 925.75387999 319.02636547 934.37277878 321.10550213 942.99425602 C321.83375915 946.01143843 322.56469355 949.02796764 323.29629707 952.04434013 C323.62838038 953.41653304 323.95916842 954.78904016 324.28855705 956.1618824 C324.7286746 957.99615612 325.17299766 959.82935919 325.6184082 961.66235352 C325.86323441 962.67781754 326.10806061 963.69328156 326.36030579 964.73951721 C327 967 327 967 328 968 C329.39559033 968.13866241 330.79790111 968.21047358 332.19966125 968.25483704 C333.10610382 968.2851149 334.01254639 968.31539276 334.94645691 968.34658813 C335.94937271 968.37441376 336.95228851 968.40223938 337.9855957 968.4309082 C339.03626221 968.46318008 340.08692871 968.49545197 341.16943359 968.52870178 C350.93244169 968.81273917 360.69755947 968.9851157 370.46369648 969.11837482 C377.01918667 969.20994548 383.56944479 969.33847306 390.12182617 969.5637207 C395.84674782 969.76048951 401.56799695 969.88342396 407.29624242 969.92244023 C410.32159923 969.94536885 413.33700819 970.00099255 416.35921669 970.1451664 C426.88196145 970.58829697 436.54368225 970.88662926 444.79257202 963.65829468 C449.20813857 959.573655 453.07024354 955.03681498 456.90091515 950.40692711 C459.45454319 947.47879557 462.22975734 944.98917021 465.21367359 942.5104723 C468.33440483 939.87166112 471.14329382 936.91810597 474 934 C478.14263748 929.80929394 482.30939927 925.77309372 486.8125 921.96875 C489.99820751 919.10161324 492.98584758 916.04568121 496 913 C500.14508331 908.81155808 504.30916359 904.77329283 508.8125 900.96875 C511.99820751 898.10161324 514.98584758 895.04568121 518 892 C522.14508331 887.81155808 526.30916359 883.77329283 530.8125 879.96875 C534.65296637 876.51233027 538.23154622 872.78697405 541.86499023 869.11547852 C545.41457818 865.54301767 549.03157879 862.15395599 552.87890625 858.90234375 C555.87139221 856.21847513 558.67433259 853.35765911 561.5 850.5 C564.89006381 847.07155449 568.25193957 843.67739301 571.9375 840.5625 C575.84269979 837.25427342 579.40280926 833.63486259 583 830 C587.1450809 825.81155484 591.30916362 821.7732928 595.8125 817.96875 C598.99820751 815.10161324 601.98584758 812.04568121 605 809 C609.14508331 804.81155808 613.30916359 800.77329283 617.8125 796.96875 C620.99820751 794.10161324 623.98584758 791.04568121 627 788 C631.14508331 783.81155808 635.30916359 779.77329283 639.8125 775.96875 C643.65296637 772.51233027 647.23154622 768.78697405 650.86499023 765.11547852 C654.41457818 761.54301767 658.03157879 758.15395599 661.87890625 754.90234375 C664.87139221 752.21847513 667.67433259 749.35765911 670.5 746.5 C673.89006381 743.07155449 677.25193957 739.67739301 680.9375 736.5625 C684.84269979 733.25427342 688.40280926 729.63486259 692 726 C696.1450809 721.81155484 700.30916362 717.7732928 704.8125 713.96875 C707.99820751 711.10161324 710.98584758 708.04568121 714 705 C718.14508331 700.81155808 722.30916359 696.77329283 726.8125 692.96875 C729.99820751 690.10161324 732.98584758 687.04568121 736 684 C740.14508331 679.81155808 744.30916359 675.77329283 748.8125 671.96875 C751.99820751 669.10161324 754.98584758 666.04568121 758 663 C762.14508331 658.81155808 766.30916359 654.77329283 770.8125 650.96875 C773.99820751 648.10161324 776.98584758 645.04568121 780 642 C784.14508331 637.81155808 788.30916359 633.77329283 792.8125 629.96875 C795.99820751 627.10161324 798.98584758 624.04568121 802 621 C806.14508331 616.81155808 810.30916359 612.77329283 814.8125 608.96875 C817.99820751 606.10161324 820.98584758 603.04568121 824 600 C828.14508331 595.81155808 832.30916359 591.77329283 836.8125 587.96875 C839.99820751 585.10161324 842.98584758 582.04568121 846 579 C850.14508331 574.81155808 854.30916359 570.77329283 858.8125 566.96875 C861.99820751 564.10161324 864.98584758 561.04568121 868 558 C872.14508331 553.81155808 876.30916359 549.77329283 880.8125 545.96875 C883.99820751 543.10161324 886.98584758 540.04568121 890 537 C894.14508331 532.81155808 898.30916359 528.77329283 902.8125 524.96875 C905.99820751 522.10161324 908.98584758 519.04568121 912 516 C916.14508331 511.81155808 920.30916359 507.77329283 924.8125 503.96875 C927.99820751 501.10161324 930.98584758 498.04568121 934 495 C938.14508331 490.81155808 942.30916359 486.77329283 946.8125 482.96875 C949.99820751 480.10161324 952.98584758 477.04568121 956 474 C960.14508331 469.81155808 964.30916359 465.77329283 968.8125 461.96875 C971.99820751 459.10161324 974.98584758 456.04568121 978 453 C982.14508331 448.81155808 986.30916359 444.77329283 990.8125 440.96875 C993.99820751 438.10161324 996.98584758 435.04568121 1000 432 C1004.14508331 427.81155808 1008.30916359 423.77329283 1012.8125 419.96875 C1015.99820751 417.10161324 1018.98584758 414.04568121 1022 411 C1026.14508331 406.81155808 1030.30916359 402.77329283 1034.8125 398.96875 C1037.99820751 396.10161324 1040.98584758 393.04568121 1044 390 C1048.14508331 385.81155808 1052.30916359 381.77329283 1056.8125 377.96875 C1059.99820751 375.10161324 1062.98584758 372.04568121 1066 369 C1070.14508331 364.81155808 1074.30916359 360.77329283 1078.8125 356.96875 C1081.99820768 354.10161308 1084.98584545 351.04567924 1088 348 C1095.28104289 340.64288509 1095.28104289 340.64288509 1098.9375 337.5625 C1103.02621151 334.10961404 1106.73734698 330.29922802 1110.5 326.5 C1114.82328655 322.1346888 1119.14676831 317.89386039 1123.84765625 313.93359375 C1127.67497257 310.49526058 1131.23632656 306.78225065 1134.85424805 303.1262207 C1137.94402217 300.01643995 1141.04512195 296.98106141 1144.375 294.125 C1148.43738449 290.62294441 1152.20741769 286.79258231 1156 283 C1156 189.94 1156 96.88 1156 1 C776.83 1 397.66 1 7 1 Z " fill="#2A271F" transform="translate(0,0)"/>
<path d="M0 0 C1.2826703 0.9535816 2.56418668 1.90871547 3.84521484 2.86450195 C4.20209885 3.13036354 4.20209885 3.13036354 6.00814819 4.4757843 C8.33910124 6.2594889 10.48687355 8.17766114 12.625 10.1875 C18.18627504 15.25857147 24.06032245 19.8601286 30.01367188 24.45947266 C32.1054257 26.08176452 34.18625789 27.71733548 36.265625 29.35546875 C49.87436097 40.0531732 63.73189456 50.42587401 78.25292969 59.86132812 C80.33295839 61.21700921 82.40438671 62.58547173 84.4765625 63.953125 C146.88255763 105.00270408 214.5489189 136.35152029 552 198 C552 198.33 552 198.66 552 199 C521.48653562 199.25346311 490.97331727 199.44644973 460.45902229 199.56171862 C456.83164792 199.57547141 453.2042756 199.58970944 449.5769043 199.60424805 C448.85495841 199.60713346 448.13301251 199.61001888 447.38918947 199.61299173 C435.79944538 199.66046165 424.21032027 199.74696455 412.62093968 199.84868076 C400.67089938 199.95266367 388.72117621 200.01287743 376.7707023 200.03497344 C370.08252942 200.04852881 363.39564193 200.08055868 356.70793343 200.16303062 C325.72975159 200.53388892 297.50759165 198.66664174 267.88037419 188.62569118 C264.21249748 187.40521171 260.50189866 186.33128481 256.79362106 185.24078083 C253.02307009 184.11594108 249.29385103 182.87255471 245.5625 181.625 C244.76265686 181.36130615 243.96281372 181.0976123 243.13873291 180.82592773 C172.83182236 157.63027345 104.47569619 124.85496008 44 82 C42.82554519 81.17444452 41.65106621 80.34892341 40.4765625 79.5234375 C34.25003144 75.12772627 28.10480985 70.62554901 22 66.0625 C21.70416016 65.84178833 21.70416016 65.84178833 20.20703125 64.72485352 C18.92902686 63.7641362 17.66991669 62.77798922 16.42626953 61.77319336 C14.43650202 60.31900928 12.57208078 59.21290018 10.41357422 58.05688477 C5.40074034 55.13448661 0.91548476 52.24822068 -0.72790527 46.41732788 C-1.75697473 38.8961621 -1.27479251 31.36599223 -0.875 23.8125 C-0.80468969 21.50214201 -0.74082619 19.19157831 -0.68359375 16.88085938 C-0.53015307 11.24938016 -0.29670677 5.62565461 0 0 Z " fill="#29271F" transform="translate(0,1531)"/>
</svg>
